<svg width="338" height="130" viewBox="0 0 338 130" fill="none" xmlns="http://www.w3.org/2000/svg">
<g clip-path="url(#clip0)">
<path d="M64.72 129.45L64.1 128.82L0 64.72L0.62 64.1L64.72 0L65.35 0.62L129.45 64.72L128.82 65.35L64.72 129.45ZM2.49 64.72L64.72 127L127 64.72L64.72 2.49L2.49 64.72Z" fill="white"/>
<path d="M64.72 103.06C57.1371 103.06 49.7244 100.811 43.4194 96.5986C37.1145 92.3857 32.2003 86.3978 29.2985 79.3921C26.3966 72.3864 25.6373 64.6775 27.1167 57.2403C28.596 49.803 32.2476 42.9715 37.6095 37.6096C42.9715 32.2476 49.803 28.5961 57.2402 27.1167C64.6775 25.6374 72.3864 26.3966 79.3921 29.2985C86.3978 32.2003 92.3857 37.1145 96.5985 43.4195C100.811 49.7244 103.06 57.1371 103.06 64.72C103.049 74.8852 99.0066 84.631 91.8188 91.8188C84.6309 99.0067 74.8852 103.049 64.72 103.06ZM64.72 28.27C57.5113 28.272 50.465 30.4114 44.4722 34.4178C38.4793 38.4242 33.809 44.1176 31.0517 50.7781C28.2944 57.4387 27.574 64.7672 28.9816 71.8372C30.3892 78.9071 33.8615 85.401 38.9595 90.4976C44.0575 95.5942 50.5523 99.0648 57.6226 100.47C64.693 101.876 72.0213 101.154 78.6811 98.3945C85.3409 95.6354 91.033 90.9635 95.0378 84.9695C99.0425 78.9756 101.18 71.9287 101.18 64.72C101.169 55.0544 97.3244 45.7878 90.4888 38.9541C83.6532 32.1205 74.3856 28.278 64.72 28.27Z" fill="white"/>
<path d="M44.33 71.54L43.33 72.35C42.9802 72.6347 42.5974 72.8765 42.19 73.07C41.7507 73.2861 41.292 73.4602 40.82 73.59C40.2052 73.7181 39.5778 73.7751 38.95 73.76C38.2633 73.7776 37.5804 73.6534 36.9438 73.3953C36.3072 73.1373 35.7306 72.7508 35.25 72.26C34.7601 71.7631 34.3763 71.1718 34.1218 70.522C33.8674 69.8722 33.7477 69.1775 33.77 68.48C33.7257 67.4286 33.9861 66.3869 34.52 65.48C35.0543 64.6772 35.8025 64.0399 36.68 63.64C37.757 63.1386 38.903 62.8015 40.08 62.64C41.4 62.46 42.81 62.32 44.33 62.22V62.13C44.3651 61.7478 44.2895 61.3635 44.1122 61.023C43.9349 60.6826 43.6634 60.4003 43.33 60.21C42.3593 59.7928 41.3047 59.6079 40.25 59.67C39.5144 59.6907 38.7848 59.8084 38.08 60.02C37.2523 60.2438 36.4433 60.5313 35.66 60.88H35.21V56.81C36.0438 56.5907 36.8882 56.4138 37.74 56.28C38.8993 56.0819 40.074 55.9882 41.25 56C44.16 56 46.25 56.48 47.6 57.45C48.2749 57.9621 48.8112 58.6346 49.1605 59.4064C49.5097 60.1782 49.6608 61.025 49.6 61.87V73.33H44.33V71.54ZM44.33 68.91V65.42L42.19 65.65C41.64 65.7113 41.0994 65.8389 40.58 66.03C40.1595 66.1632 39.7874 66.4171 39.51 66.76C39.2382 67.1333 39.104 67.5891 39.13 68.05C39.0955 68.3518 39.1358 68.6575 39.2474 68.9401C39.359 69.2226 39.5385 69.4733 39.77 69.67C40.3357 69.9995 40.9868 70.1527 41.64 70.11C42.1092 70.0961 42.5711 69.9908 43 69.8C43.4944 69.588 43.9454 69.2862 44.33 68.91Z" fill="white"/>
<path d="M61.14 73.7601C59.8447 73.7757 58.5542 73.6005 57.31 73.2401C56.2064 72.9141 55.184 72.3586 54.31 71.6101C53.4391 70.8649 52.7542 69.9267 52.31 68.8701C51.3638 66.2835 51.3851 63.4421 52.37 60.8701C52.8479 59.7973 53.5584 58.8443 54.45 58.0801C55.3324 57.3621 56.3538 56.8344 57.45 56.5301C59.5203 55.9309 61.7091 55.869 63.81 56.3501C64.7821 56.574 65.725 56.9095 66.62 57.3501V61.8601H65.94C65.73 61.6601 65.47 61.4401 65.17 61.2001C64.8552 60.9531 64.5208 60.7324 64.17 60.5401C63.7506 60.3134 63.308 60.1324 62.85 60.0001C62.3259 59.8544 61.7839 59.7837 61.24 59.7901C60.6458 59.756 60.0521 59.8655 59.5091 60.1091C58.966 60.3528 58.4896 60.7235 58.12 61.1901C57.3176 62.2925 56.9219 63.6388 57 65.0001C56.8886 66.3623 57.3118 67.7144 58.18 68.7701C58.5889 69.1852 59.0809 69.5094 59.6237 69.7213C60.1665 69.9333 60.748 70.0283 61.33 70.0001C61.9213 70.0075 62.5107 69.9301 63.08 69.7701C63.5291 69.6441 63.9621 69.4663 64.37 69.2401C64.689 69.0509 64.9902 68.8334 65.27 68.5901C65.52 68.3701 65.74 68.1601 65.92 67.9901H66.6V72.4801L65.6 72.9301C65.2076 73.0997 64.8031 73.2401 64.39 73.3501C63.9164 73.4837 63.4356 73.5905 62.95 73.6701C62.3499 73.7471 61.7448 73.7772 61.14 73.7601Z" fill="white"/>
<path d="M89.54 73.33V64.9C89.54 64.07 89.54 63.36 89.54 62.79C89.5314 62.3103 89.4365 61.8361 89.26 61.39C89.1312 61.0523 88.8818 60.7744 88.56 60.61C88.1433 60.4207 87.687 60.335 87.23 60.36C86.8197 60.3644 86.4147 60.4529 86.04 60.62C85.5883 60.8306 85.1565 61.0816 84.75 61.37V73.37H79.45V64.9C79.45 64.08 79.45 63.38 79.45 62.8C79.432 62.3181 79.3375 61.8422 79.17 61.39C79.0412 61.0523 78.7918 60.7744 78.47 60.61C78.0562 60.4227 77.6036 60.337 77.15 60.36C76.7095 60.3629 76.2753 60.4655 75.88 60.66C75.4606 60.8622 75.0591 61.0997 74.68 61.37V73.37H69.36V56.47H74.63V58.33C75.3745 57.6722 76.1895 57.0987 77.06 56.62C77.8458 56.1966 78.7276 55.9831 79.62 56C80.5795 55.9755 81.5251 56.2328 82.34 56.74C83.1509 57.2649 83.777 58.0308 84.13 58.93C84.9968 58.0949 85.9603 57.3664 87 56.76C87.821 56.2733 88.7556 56.0112 89.71 56C90.428 55.9894 91.1412 56.1184 91.81 56.38C92.4205 56.6183 92.963 57.0029 93.39 57.5C93.8724 58.0636 94.2332 58.7206 94.45 59.43C94.7126 60.3803 94.8306 61.3646 94.8 62.35V73.35L89.54 73.33Z" fill="white"/>
<path d="M147.89 40.8701L146.69 44.8001H144.08L148.53 30.9301H151.76L156.26 44.8001H153.55L152.29 40.8701H147.89ZM151.89 38.9601L150.8 35.5401C150.53 34.7001 150.3 33.7501 150.1 32.9501C149.89 33.7501 149.68 34.7201 149.44 35.5401L148.3 39.0001L151.89 38.9601Z" fill="white"/>
<path d="M157.6 42.4501C158.376 42.9044 159.252 43.1619 160.15 43.2001C161.26 43.2001 161.76 42.7201 161.76 42.0601C161.76 41.4001 161.35 41.0601 160.11 40.6001C158.11 39.9401 157.35 38.8701 157.35 37.6801C157.35 35.9101 158.81 34.5501 161.14 34.5501C162.068 34.533 162.987 34.7388 163.82 35.1501L163.3 36.9201C162.654 36.5493 161.925 36.3496 161.18 36.3401C160.28 36.3401 159.78 36.8001 159.78 37.4101C159.78 38.0201 160.26 38.3401 161.53 38.8101C163.36 39.4501 164.19 40.3801 164.21 41.8101C164.21 43.6401 162.79 44.9601 160.13 44.9601C159.088 44.9717 158.059 44.7315 157.13 44.26L157.6 42.4501Z" fill="white"/>
<path d="M165.87 42.4501C166.646 42.9044 167.522 43.1619 168.42 43.2001C169.54 43.2001 170.03 42.7201 170.03 42.0601C170.03 41.4001 169.62 41.0601 168.38 40.6001C166.43 39.9401 165.63 38.8701 165.63 37.6801C165.63 35.9101 167.09 34.5501 169.41 34.5501C170.338 34.533 171.257 34.7388 172.09 35.1501L171.57 36.9201C170.924 36.5493 170.195 36.3496 169.45 36.3401C168.55 36.3401 168.06 36.8001 168.06 37.4101C168.06 38.0201 168.53 38.3401 169.8 38.8101C171.64 39.4501 172.46 40.3801 172.48 41.8101C172.48 43.6401 171.06 44.9601 168.4 44.9601C167.358 44.9717 166.329 44.7315 165.4 44.26L165.87 42.4501Z" fill="white"/>
<path d="M178.63 45C177.953 45.0225 177.278 44.9028 176.65 44.6486C176.022 44.3944 175.454 44.0114 174.983 43.5243C174.512 43.0372 174.148 42.4568 173.915 41.8205C173.682 41.1842 173.585 40.5061 173.63 39.83C173.586 39.1315 173.689 38.4315 173.933 37.7754C174.177 37.1193 174.555 36.5216 175.044 36.0211C175.534 35.5206 176.122 35.1283 176.773 34.8698C177.423 34.6112 178.121 34.492 178.82 34.52C179.497 34.4915 180.173 34.6064 180.802 34.8572C181.432 35.108 182.001 35.4889 182.473 35.9752C182.945 36.4614 183.309 37.042 183.542 37.6787C183.774 38.3154 183.869 38.994 183.82 39.67C183.867 40.3684 183.766 41.0688 183.525 41.7259C183.284 42.383 182.907 42.9821 182.42 43.4845C181.933 43.987 181.345 44.3815 180.696 44.6425C180.047 44.9036 179.349 45.0254 178.65 45H178.63ZM178.71 43.17C180.16 43.17 181.16 41.77 181.16 39.73C181.16 38.16 180.46 36.35 178.73 36.35C177 36.35 176.22 38.1 176.22 39.77C176.22 41.7 177.22 43.17 178.69 43.17H178.71Z" fill="white"/>
<path d="M192.91 44.4899C192.008 44.853 191.042 45.0299 190.07 45.0099C189.382 45.0585 188.693 44.9593 188.046 44.7191C187.4 44.4788 186.813 44.1031 186.325 43.6172C185.836 43.1313 185.457 42.5463 185.213 41.9017C184.969 41.2571 184.865 40.5677 184.91 39.8799C184.91 36.8799 186.97 34.5499 190.49 34.5499C191.325 34.548 192.153 34.7041 192.93 35.0099L192.48 36.9199C191.884 36.6387 191.229 36.5049 190.57 36.5299C190.148 36.5186 189.729 36.5964 189.339 36.7582C188.95 36.9199 188.598 37.1621 188.309 37.4688C188.019 37.7755 187.797 38.1399 187.658 38.5381C187.518 38.9364 187.465 39.3595 187.5 39.7799C187.469 40.198 187.526 40.6178 187.668 41.0125C187.809 41.4071 188.031 41.7677 188.321 42.0711C188.61 42.3745 188.959 42.6139 189.347 42.7739C189.734 42.9339 190.151 43.0109 190.57 42.9999C191.257 43.0106 191.938 42.8778 192.57 42.6099L192.91 44.4899Z" fill="white"/>
<path d="M195.73 33.34C195.461 33.3262 195.202 33.2335 194.986 33.0735C194.769 32.9135 194.605 32.6933 194.513 32.4404C194.421 32.1874 194.405 31.913 194.468 31.6513C194.531 31.3896 194.67 31.1522 194.867 30.9689C195.064 30.7855 195.311 30.6643 195.576 30.6202C195.842 30.5762 196.114 30.6114 196.36 30.7214C196.606 30.8314 196.814 31.0113 196.958 31.2387C197.102 31.4661 197.176 31.7309 197.17 32C197.172 32.186 197.135 32.3703 197.062 32.5414C196.99 32.7125 196.882 32.8668 196.747 32.9945C196.612 33.1222 196.452 33.2205 196.277 33.2834C196.102 33.3463 195.916 33.3724 195.73 33.36V33.34ZM194.48 44.8V34.8H197V44.8H194.48Z" fill="white"/>
<path d="M207.22 42.39C207.203 43.1964 207.257 44.0028 207.38 44.8H205.1L204.91 43.69H204.85C204.488 44.1305 204.028 44.4808 203.508 44.7134C202.987 44.9459 202.42 45.0543 201.85 45.03C201.444 45.0503 201.037 44.9878 200.656 44.8462C200.274 44.7045 199.926 44.4868 199.631 44.2061C199.336 43.9255 199.102 43.5879 198.942 43.2138C198.782 42.8397 198.699 42.4369 198.7 42.03C198.7 39.52 200.94 38.23 204.64 38.25V38.08C204.64 37.42 204.38 36.33 202.64 36.33C201.69 36.3321 200.758 36.5876 199.94 37.07L199.45 35.43C200.557 34.818 201.806 34.5109 203.07 34.54C206.28 34.54 207.21 36.54 207.21 38.78L207.22 42.39ZM204.75 39.9C202.96 39.9 201.25 40.25 201.25 41.78C201.233 41.9733 201.259 42.168 201.325 42.3503C201.392 42.5326 201.497 42.6982 201.635 42.8354C201.772 42.9726 201.937 43.0782 202.12 43.1446C202.302 43.211 202.497 43.2368 202.69 43.22C203.127 43.2317 203.556 43.1043 203.915 42.8563C204.275 42.6082 204.546 42.2523 204.69 41.84C204.748 41.6592 204.771 41.4694 204.76 41.28L204.75 39.9Z" fill="white"/>
<path d="M212.36 32.21V34.78H214.77V36.67H212.36V41.08C212.36 42.31 212.69 42.93 213.66 42.93C213.996 42.9461 214.333 42.9124 214.66 42.83V44.74C214.069 44.9299 213.451 45.0211 212.83 45.01C212.427 45.0309 212.025 44.9679 211.648 44.825C211.271 44.6821 210.928 44.4625 210.64 44.18C210.026 43.3751 209.74 42.3673 209.84 41.36V36.67H208.42V34.78H209.84V32.91L212.36 32.21Z" fill="white"/>
<path d="M217.63 33.34C217.361 33.3262 217.102 33.2335 216.886 33.0735C216.669 32.9135 216.505 32.6933 216.413 32.4404C216.321 32.1874 216.305 31.913 216.368 31.6513C216.431 31.3896 216.57 31.1522 216.767 30.9689C216.964 30.7855 217.211 30.6643 217.476 30.6202C217.742 30.5762 218.014 30.6114 218.26 30.7214C218.506 30.8314 218.714 31.0113 218.858 31.2387C219.002 31.4661 219.076 31.7309 219.07 32C219.072 32.186 219.035 32.3703 218.962 32.5414C218.89 32.7125 218.782 32.8668 218.647 32.9945C218.512 33.1222 218.352 33.2205 218.177 33.2834C218.002 33.3463 217.816 33.3724 217.63 33.36V33.34ZM216.37 44.8V34.8H218.91V44.8H216.37Z" fill="white"/>
<path d="M225.72 45C225.043 45.0225 224.368 44.9028 223.74 44.6486C223.112 44.3944 222.544 44.0114 222.073 43.5243C221.602 43.0372 221.238 42.4568 221.005 41.8205C220.772 41.1842 220.675 40.5061 220.72 39.83C220.676 39.1324 220.779 38.4333 221.022 37.7779C221.265 37.1225 221.643 36.5253 222.131 36.0249C222.619 35.5246 223.207 35.1321 223.856 34.8729C224.505 34.6137 225.201 34.4935 225.9 34.52C226.577 34.4915 227.253 34.6064 227.882 34.8572C228.512 35.108 229.081 35.4889 229.553 35.9752C230.025 36.4614 230.389 37.042 230.622 37.6787C230.854 38.3154 230.949 38.994 230.9 39.67C230.947 40.3675 230.846 41.067 230.606 41.7234C230.365 42.3798 229.99 42.9785 229.503 43.4807C229.017 43.983 228.431 44.3777 227.783 44.6394C227.135 44.9011 226.439 45.0239 225.74 45H225.72ZM225.8 43.17C227.24 43.17 228.25 41.77 228.25 39.73C228.25 38.16 227.55 36.35 225.82 36.35C224.09 36.35 223.31 38.1 223.31 39.77C223.31 41.7 224.31 43.17 225.78 43.17H225.8Z" fill="white"/>
<path d="M232.63 37.76C232.63 36.61 232.63 35.64 232.55 34.76H234.75L234.87 36.26H234.94C235.279 35.7176 235.753 35.2728 236.316 34.9694C236.879 34.6661 237.511 34.5146 238.15 34.53C239.9 34.53 241.71 35.66 241.71 38.83V44.8H239.18V39.14C239.18 37.7 238.64 36.61 237.26 36.61C236.813 36.6129 236.378 36.7578 236.019 37.0238C235.659 37.2899 235.394 37.6632 235.26 38.09C235.167 38.3463 235.123 38.6176 235.13 38.89V44.8H232.6L232.63 37.76Z" fill="white"/>
<path d="M248.33 44.8V36.67H247V34.78H248.35V34.35C248.314 33.7273 248.404 33.1038 248.613 32.5163C248.823 31.9289 249.148 31.3894 249.57 30.93C250.283 30.2798 251.215 29.9227 252.18 29.93C252.726 29.931 253.269 30.0153 253.79 30.18L253.62 32.13C253.27 32.0067 252.901 31.9458 252.53 31.95C251.28 31.95 250.86 33 250.86 34.23V34.75H253.07V36.64H250.88V44.8H248.33Z" fill="white"/>
<path d="M258.46 45C257.783 45.0225 257.108 44.9028 256.48 44.6486C255.852 44.3944 255.284 44.0114 254.813 43.5243C254.342 43.0372 253.978 42.4568 253.745 41.8205C253.512 41.1842 253.415 40.5061 253.46 39.83C253.416 39.1324 253.519 38.4333 253.762 37.7779C254.005 37.1225 254.383 36.5253 254.871 36.0249C255.359 35.5246 255.947 35.1321 256.596 34.8729C257.245 34.6137 257.942 34.4935 258.64 34.52C259.317 34.4915 259.993 34.6064 260.622 34.8572C261.252 35.108 261.821 35.4889 262.293 35.9752C262.765 36.4614 263.129 37.042 263.362 37.6787C263.594 38.3154 263.689 38.994 263.64 39.67C263.687 40.3675 263.586 41.067 263.346 41.7234C263.105 42.3798 262.73 42.9785 262.243 43.4807C261.757 43.983 261.171 44.3777 260.523 44.6394C259.875 44.9011 259.179 45.0239 258.48 45H258.46ZM258.54 43.17C259.98 43.17 260.99 41.77 260.99 39.73C260.99 38.16 260.29 36.35 258.56 36.35C256.83 36.35 256.05 38.1 256.05 39.77C256.05 41.7 257.05 43.17 258.52 43.17H258.54Z" fill="white"/>
<path d="M265.37 38C265.37 36.64 265.37 35.65 265.29 34.77H267.47L267.58 36.66H267.64C267.822 36.0651 268.184 35.5415 268.677 35.1617C269.17 34.7819 269.768 34.5646 270.39 34.54C270.592 34.5376 270.793 34.5577 270.99 34.6V37C270.739 36.9564 270.485 36.9363 270.23 36.94C269.692 36.9316 269.17 37.1186 268.76 37.4661C268.35 37.8137 268.08 38.2983 268 38.83C267.959 39.0812 267.939 39.3354 267.94 39.59V44.8H265.4L265.37 38Z" fill="white"/>
<path d="M155.05 67.26C153.901 67.6967 152.678 67.9039 151.45 67.87C147.04 67.87 144.37 65.12 144.37 60.87C144.37 56.3 147.56 53.56 151.8 53.56C152.947 53.5133 154.09 53.718 155.15 54.16L154.62 56.16C153.758 55.8038 152.833 55.6236 151.9 55.63C149.08 55.63 147.04 57.4 147.04 60.73C147.04 63.73 148.81 65.73 151.88 65.73C152.822 65.7378 153.758 65.5717 154.64 65.24L155.05 67.26Z" fill="white"/>
<path d="M160.85 67.89C160.173 67.9139 159.499 67.7955 158.871 67.5425C158.243 67.2895 157.675 66.9074 157.203 66.4211C156.732 65.9348 156.368 65.355 156.135 64.7191C155.902 64.0833 155.805 63.4057 155.85 62.73C155.806 62.035 155.909 61.3385 156.15 60.6852C156.391 60.032 156.766 59.4363 157.251 58.9364C157.736 58.4365 158.32 58.0434 158.965 57.7823C159.611 57.5211 160.304 57.3977 161 57.42C161.676 57.3916 162.351 57.5063 162.98 57.7565C163.609 58.0067 164.178 58.3867 164.649 58.8719C165.121 59.357 165.486 59.9363 165.718 60.5718C165.951 61.2073 166.047 61.8848 166 62.56C166.046 63.2549 165.947 63.9518 165.708 64.6061C165.469 65.2603 165.096 65.8575 164.614 66.3593C164.131 66.8611 163.548 67.2564 162.903 67.52C162.259 67.7836 161.566 67.9096 160.87 67.89H160.85ZM160.93 66.06C162.38 66.06 163.38 64.66 163.38 62.62C163.38 61.06 162.68 59.25 160.96 59.25C159.24 59.25 158.44 61 158.44 62.67C158.44 64.6 159.44 66.06 160.91 66.06H160.93Z" fill="white"/>
<path d="M167.77 60.63C167.77 59.48 167.77 58.51 167.68 57.63H169.85L169.97 59.12H170C170.309 58.5793 170.761 58.1339 171.306 57.8324C171.85 57.5308 172.468 57.3847 173.09 57.41C173.687 57.3957 174.274 57.5656 174.772 57.8966C175.269 58.2276 175.653 58.7036 175.87 59.26C176.193 58.7466 176.632 58.3153 177.15 58C177.755 57.5855 178.477 57.3753 179.21 57.4C180.85 57.4 182.54 58.53 182.54 61.74V67.65H180.07V62.13C180.07 60.46 179.5 59.48 178.28 59.48C177.884 59.4933 177.502 59.6281 177.185 59.866C176.869 60.1039 176.633 60.4335 176.51 60.81C176.427 61.0856 176.386 61.3722 176.39 61.66V67.66H173.92V61.86C173.92 60.46 173.36 59.48 172.19 59.48C171.775 59.4976 171.376 59.6437 171.049 59.8981C170.721 60.1526 170.48 60.5027 170.36 60.9C170.279 61.1726 170.238 61.4556 170.24 61.74V67.67H167.77V60.63Z" fill="white"/>
<path d="M184.91 61C184.91 59.68 184.91 58.61 184.83 57.66H187.05L187.17 59.21C187.541 58.6427 188.053 58.1813 188.656 57.8711C189.259 57.5609 189.932 57.4123 190.61 57.44C192.92 57.44 194.83 59.44 194.83 62.54C194.83 66.16 192.55 67.91 190.26 67.91C189.717 67.9371 189.175 67.8298 188.684 67.5979C188.192 67.3659 187.765 67.0163 187.44 66.58V71.76H184.91V61ZM187.44 63.49C187.439 63.7247 187.46 63.9589 187.5 64.19C187.621 64.6951 187.91 65.1444 188.318 65.4656C188.726 65.7868 189.231 65.9609 189.75 65.96C191.35 65.96 192.3 64.62 192.3 62.64C192.3 60.87 191.43 59.43 189.81 59.43C189.274 59.4454 188.758 59.6383 188.344 59.9786C187.929 60.3189 187.639 60.7872 187.52 61.31C187.474 61.5171 187.447 61.728 187.44 61.94V63.49Z" fill="white"/>
<path d="M205.61 64.66C205.61 65.85 205.61 66.84 205.69 67.66H203.49L203.37 66.15H203.31C202.971 66.6968 202.494 67.1446 201.927 67.4483C201.36 67.752 200.723 67.9009 200.08 67.88C198.26 67.88 196.6 66.79 196.6 63.52V57.64H199.13V63.1C199.13 64.77 199.67 65.84 201 65.84C201.424 65.8391 201.837 65.7082 202.184 65.465C202.531 65.2218 202.795 64.878 202.94 64.48C203.041 64.2327 203.088 63.9669 203.08 63.7V57.64H205.61V64.66Z" fill="white"/>
<path d="M210.94 55.0699V57.6399H213.35V59.5399H210.94V63.9399C210.94 65.1799 211.27 65.7899 212.24 65.7899C212.576 65.806 212.913 65.7723 213.24 65.6899V67.6099C212.648 67.7956 212.03 67.8834 211.41 67.8699C211.008 67.8903 210.607 67.8281 210.23 67.6871C209.853 67.546 209.51 67.3292 209.22 67.0499C208.606 66.245 208.32 65.2373 208.42 64.2299V59.5399H207V57.6399H208.42V55.7699L210.94 55.0699Z" fill="white"/>
<path d="M216.21 56.2C215.942 56.1862 215.683 56.0939 215.467 55.9343C215.251 55.7748 215.086 55.5552 214.994 55.3028C214.901 55.0505 214.885 54.7765 214.947 54.515C215.009 54.2535 215.147 54.0161 215.343 53.8323C215.539 53.6485 215.785 53.5264 216.05 53.4813C216.315 53.4361 216.587 53.4699 216.833 53.5783C217.079 53.6868 217.288 53.8652 217.433 54.0913C217.578 54.3174 217.654 54.5813 217.65 54.85C217.652 55.0355 217.615 55.2195 217.542 55.3901C217.469 55.5608 217.362 55.7144 217.227 55.8413C217.091 55.9682 216.931 56.0656 216.756 56.1274C216.581 56.1891 216.395 56.2139 216.21 56.2ZM215 67.67V57.67H217.54V67.67H215Z" fill="white"/>
<path d="M219.91 60.63C219.91 59.48 219.91 58.51 219.83 57.63H222L222.13 59.14H222.19C222.529 58.5976 223.003 58.1528 223.566 57.8495C224.129 57.5461 224.761 57.3946 225.4 57.41C227.15 57.41 228.96 58.54 228.96 61.71V67.71H226.43V62C226.43 60.56 225.89 59.47 224.51 59.47C224.064 59.476 223.63 59.6221 223.271 59.8876C222.913 60.1532 222.646 60.5248 222.51 60.95C222.424 61.2078 222.384 61.4784 222.39 61.75V67.66H219.85L219.91 60.63Z" fill="white"/>
<path d="M240.45 66.2C240.45 68.31 240.02 69.81 238.97 70.75C237.877 71.6267 236.5 72.0715 235.1 72C233.885 72.0243 232.683 71.7496 231.6 71.2L232.16 69.28C233.054 69.7751 234.058 70.0365 235.08 70.04C236.73 70.04 237.96 69.18 237.96 67.04V66.17C237.632 66.6445 237.188 67.0264 236.669 67.2787C236.151 67.5309 235.576 67.6451 235 67.61C232.51 67.61 230.74 65.55 230.74 62.71C230.74 59.41 232.88 57.42 235.29 57.42C235.87 57.3861 236.449 57.5139 236.961 57.7894C237.473 58.0648 237.898 58.477 238.19 58.98L238.29 57.64H240.49C240.49 58.32 240.41 59.15 240.41 60.53L240.45 66.2ZM237.92 61.66C237.926 61.4307 237.899 61.2017 237.84 60.98C237.731 60.5155 237.469 60.1014 237.095 59.8054C236.72 59.5093 236.257 59.3488 235.78 59.35C234.36 59.35 233.31 60.59 233.31 62.62C233.31 64.33 234.17 65.71 235.76 65.71C236.223 65.7081 236.673 65.5573 237.044 65.2801C237.415 65.0028 237.687 64.6136 237.82 64.17C237.895 63.8795 237.929 63.5799 237.92 63.28V61.66Z" fill="white"/>
<path d="M258.62 62C258.54 60.21 258.44 58.07 258.46 56.17H258.4C257.94 57.86 257.4 59.73 256.75 61.48L254.75 67.48H252.82L250.97 61.56C250.43 59.79 249.97 57.89 249.57 56.16C249.5 57.97 249.42 60.16 249.32 62.07L249.01 67.65H246.64L247.57 53.78H250.9L252.72 59.35C253.21 60.98 253.64 62.63 253.99 64.17H254C254.37 62.67 254.85 60.96 255.38 59.33L257.3 53.78H260.59L261.39 67.65H258.92L258.62 62Z" fill="white"/>
<path d="M271.38 65.26C271.362 66.0668 271.419 66.8736 271.55 67.67H269.26L269.08 66.56H269C268.637 66.9986 268.177 67.3471 267.656 67.5779C267.136 67.8087 266.569 67.9155 266 67.89C265.594 67.9103 265.187 67.8478 264.806 67.7061C264.424 67.5645 264.076 67.3468 263.781 67.0661C263.486 66.7855 263.252 66.4479 263.092 66.0737C262.932 65.6996 262.849 65.2969 262.85 64.89C262.85 62.38 265.1 61.08 268.85 61.1V61C268.85 60.34 268.58 59.25 266.85 59.25C265.904 59.2534 264.975 59.5088 264.16 59.99L263.66 58.34C264.773 57.7368 266.024 57.4335 267.29 57.46C270.5 57.46 271.42 59.46 271.42 61.7L271.38 65.26ZM268.91 62.77C267.12 62.77 265.41 63.12 265.41 64.64C265.393 64.8342 265.419 65.0298 265.486 65.2129C265.553 65.396 265.659 65.5622 265.798 65.6996C265.936 65.837 266.103 65.9423 266.287 66.008C266.47 66.0737 266.666 66.0983 266.86 66.08C267.296 66.0901 267.725 65.9621 268.084 65.7143C268.443 65.4665 268.715 65.1114 268.86 64.7C268.91 64.5211 268.93 64.3353 268.92 64.15L268.91 62.77Z" fill="white"/>
<path d="M281.12 67.36C280.216 67.7165 279.251 67.8898 278.28 67.87C277.593 67.9199 276.902 67.822 276.256 67.5831C275.609 67.3441 275.022 66.9695 274.532 66.4845C274.042 65.9995 273.662 65.4153 273.417 64.7712C273.171 64.127 273.067 63.4379 273.11 62.75C273.11 59.75 275.17 57.42 278.69 57.42C279.528 57.4165 280.358 57.5691 281.14 57.87L280.68 59.78C280.083 59.5023 279.428 59.3688 278.77 59.39C277.941 59.436 277.16 59.798 276.589 60.4015C276.018 61.005 275.7 61.8042 275.7 62.635C275.7 63.4657 276.018 64.265 276.589 64.8685C277.16 65.472 277.941 65.8339 278.77 65.88C279.456 65.8832 280.136 65.7506 280.77 65.49L281.12 67.36Z" fill="white"/>
<path d="M282.68 53H285.21V59C285.527 58.522 285.96 58.133 286.47 57.87C287.004 57.5707 287.608 57.4156 288.22 57.42C289.93 57.42 291.72 58.55 291.72 61.76V67.67H289.18V62C289.18 60.56 288.65 59.45 287.25 59.45C286.809 59.4442 286.378 59.5786 286.018 59.8338C285.659 60.0891 285.39 60.4519 285.25 60.87C285.166 61.1142 285.129 61.372 285.14 61.63V67.63H282.61L282.68 53Z" fill="white"/>
<path d="M295.4 56.2C295.132 56.1862 294.873 56.0939 294.657 55.9343C294.441 55.7748 294.276 55.5552 294.184 55.3028C294.091 55.0505 294.075 54.7765 294.137 54.515C294.199 54.2535 294.337 54.0161 294.533 53.8323C294.729 53.6485 294.975 53.5264 295.24 53.4813C295.505 53.4361 295.777 53.4699 296.023 53.5783C296.269 53.6868 296.478 53.8652 296.623 54.0913C296.768 54.3174 296.844 54.5813 296.84 54.85C296.842 55.0355 296.805 55.2195 296.732 55.3901C296.659 55.5608 296.552 55.7144 296.417 55.8413C296.281 55.9682 296.121 56.0656 295.946 56.1274C295.771 56.1891 295.585 56.2139 295.4 56.2ZM294.14 67.67V57.67H296.68V67.67H294.14Z" fill="white"/>
<path d="M299.1 60.63C299.1 59.48 299.1 58.51 299.02 57.63H301.22L301.35 59.14H301.41C301.749 58.5976 302.223 58.1528 302.786 57.8495C303.349 57.5461 303.981 57.3946 304.62 57.41C306.37 57.41 308.18 58.54 308.18 61.71V67.71H305.65V62C305.65 60.56 305.11 59.47 303.73 59.47C303.283 59.4729 302.848 59.6178 302.489 59.8838C302.129 60.1499 301.864 60.5232 301.73 60.95C301.636 61.2059 301.592 61.4775 301.6 61.75V67.66H299.1V60.63Z" fill="white"/>
<path d="M312.36 63.37C312.42 65.18 313.84 65.96 315.44 65.96C316.386 65.9709 317.326 65.8187 318.22 65.51L318.59 67.24C317.477 67.6807 316.287 67.8949 315.09 67.87C311.84 67.87 309.93 65.87 309.93 62.81C309.93 60.03 311.61 57.42 314.83 57.42C318.05 57.42 319.15 60.09 319.15 62.3C319.153 62.6583 319.126 63.0162 319.07 63.37H312.36ZM316.76 61.6C316.802 61.2994 316.781 60.9932 316.696 60.7016C316.612 60.4099 316.467 60.1395 316.27 59.908C316.074 59.6766 315.83 59.4894 315.556 59.3587C315.282 59.2281 314.984 59.157 314.68 59.15C314.055 59.1881 313.467 59.4623 313.036 59.9172C312.606 60.372 312.364 60.9736 312.36 61.6H316.76Z" fill="white"/>
<path d="M320.88 60.88C320.88 59.52 320.88 58.53 320.79 57.64H323L323.11 59.54H323.17C323.353 58.9436 323.717 58.4189 324.211 58.0389C324.706 57.659 325.307 57.4426 325.93 57.42C326.128 57.4182 326.326 57.4383 326.52 57.48V59.85C326.269 59.8025 326.015 59.7791 325.76 59.78C325.214 59.7696 324.683 59.9589 324.267 60.3125C323.851 60.6661 323.578 61.1595 323.5 61.7C323.458 61.9512 323.438 62.2055 323.44 62.46V67.67H320.91L320.88 60.88Z" fill="white"/>
<path d="M330 57.6399L331.74 62.9999C331.95 63.6099 332.17 64.3699 332.32 64.9299H332.38C332.52 64.3699 332.71 63.6099 332.91 62.9299L334.48 57.5699H337.18L334.66 64.41C333.29 68.15 332.36 69.8199 331.19 70.8499C330.44 71.514 329.518 71.954 328.53 72.1199L328 70.0699C328.527 69.9316 329.022 69.694 329.46 69.3699C330.048 68.965 330.529 68.4226 330.86 67.7899C330.935 67.6502 330.982 67.4975 331 67.3399C330.993 67.1671 330.952 66.9973 330.88 66.8399L327.19 57.6399H330Z" fill="white"/>
<path d="M147.28 96L143.4 84.11H145.06L146.91 90C147.42 91.61 147.91 93.05 148.18 94.45C148.52 93.07 149.01 91.57 149.54 90.02L151.54 84.15H153.18L149 96H147.28Z" fill="white"/>
<path d="M156.05 84.11V96H154.51V84.11H156.05Z" fill="white"/>
<path d="M161 85.41H157.39V84.11H166.19V85.41H162.56V96H161V85.41Z" fill="white"/>
<path d="M174.76 94.12C175.589 94.6237 176.54 94.8932 177.51 94.9C179.08 94.9 180 94.07 180 92.9C180 91.73 179.36 91.16 177.76 90.54C175.82 89.85 174.62 88.85 174.62 87.17C174.62 85.32 176.15 83.95 178.46 83.95C179.372 83.9185 180.276 84.1181 181.09 84.53L180.67 85.78C179.974 85.4095 179.198 85.2171 178.41 85.22C176.79 85.22 176.17 86.22 176.17 87C176.17 88.11 176.9 88.65 178.53 89.29C180.53 90.06 181.53 91.03 181.53 92.78C181.53 94.53 180.17 96.2 177.37 96.2C176.321 96.2088 175.288 95.947 174.37 95.44L174.76 94.12Z" fill="white"/>
<path d="M185.43 85V87.45H187.65V88.63H185.43V93.23C185.43 94.29 185.73 94.89 186.6 94.89C186.904 94.8962 187.207 94.8592 187.5 94.78L187.57 95.95C187.126 96.1022 186.659 96.1733 186.19 96.16C185.88 96.177 185.57 96.1278 185.28 96.0157C184.99 95.9037 184.728 95.7313 184.51 95.51C184.047 94.8677 183.837 94.0774 183.92 93.29V88.64H182.59V87.46H183.92V85.46L185.43 85Z" fill="white"/>
<path d="M196.54 93.67C196.54 94.55 196.54 95.32 196.61 95.99H195.24L195.15 94.6C194.865 95.0925 194.453 95.4997 193.957 95.7793C193.461 96.0589 192.899 96.2007 192.33 96.19C190.99 96.19 189.39 95.45 189.39 92.45V87.45H190.94V92.17C190.94 93.8 191.43 94.89 192.84 94.89C193.416 94.8847 193.967 94.6513 194.372 94.2409C194.777 93.8304 195.003 93.2764 195 92.7V87.46H196.55L196.54 93.67Z" fill="white"/>
<path d="M206.49 83.48V93.79C206.49 94.55 206.49 95.41 206.56 95.99H205.17L205.1 94.51C204.823 95.0361 204.403 95.4731 203.888 95.7704C203.373 96.0677 202.784 96.2132 202.19 96.19C200.13 96.19 198.55 94.44 198.55 91.85C198.55 89.01 200.29 87.27 202.37 87.27C202.876 87.2357 203.381 87.3384 203.833 87.5671C204.286 87.7959 204.668 88.1423 204.94 88.57V83.48H206.49ZM204.94 90.93C204.941 90.7114 204.917 90.4934 204.87 90.28C204.758 89.7693 204.475 89.3123 204.067 88.9849C203.66 88.6575 203.153 88.4793 202.63 88.48C201.03 88.48 200.07 89.89 200.07 91.78C200.07 93.51 200.92 94.94 202.6 94.94C203.134 94.9372 203.651 94.7509 204.065 94.4123C204.478 94.0736 204.762 93.6033 204.87 93.08C204.92 92.8603 204.944 92.6353 204.94 92.41V90.93Z" fill="white"/>
<path d="M209.93 92C209.891 92.3977 209.939 92.799 210.072 93.1759C210.204 93.5528 210.418 93.8962 210.697 94.1821C210.976 94.4679 211.314 94.6892 211.688 94.8305C212.062 94.9718 212.462 95.0297 212.86 95C213.669 95.0273 214.475 94.8771 215.22 94.56L215.49 95.67C214.592 96.046 213.624 96.2267 212.65 96.2C212.082 96.2301 211.514 96.1387 210.984 95.9319C210.454 95.7251 209.974 95.4076 209.577 95.0006C209.179 94.5936 208.873 94.1066 208.679 93.5719C208.485 93.0372 208.407 92.4673 208.45 91.9C208.45 89.32 209.97 87.3 212.45 87.3C215.23 87.3 215.97 89.75 215.97 91.3C215.985 91.5398 215.985 91.7803 215.97 92.02L209.93 92ZM214.48 90.89C214.526 90.5797 214.504 90.2631 214.418 89.9616C214.331 89.6601 214.181 89.3806 213.977 89.142C213.773 88.9033 213.521 88.711 213.237 88.5778C212.953 88.4447 212.644 88.3738 212.33 88.37C211.698 88.4293 211.11 88.7206 210.679 89.1878C210.249 89.655 210.007 90.265 210 90.9L214.48 90.89Z" fill="white"/>
<path d="M217.91 89.77C217.91 88.89 217.91 88.17 217.84 87.46H219.21L219.3 88.87C219.582 88.3719 219.995 87.9599 220.493 87.6781C220.992 87.3963 221.558 87.2552 222.13 87.27C223.31 87.27 225.13 87.97 225.13 90.9V96H223.58V91.08C223.58 89.7 223.07 88.55 221.58 88.55C220.986 88.5709 220.424 88.825 220.016 89.2574C219.608 89.6898 219.386 90.2656 219.4 90.86V96H217.85L217.91 89.77Z" fill="white"/>
<path d="M229.5 85V87.45H231.72V88.63H229.5V93.23C229.5 94.29 229.8 94.89 230.66 94.89C230.964 94.8969 231.267 94.8599 231.56 94.78L231.63 95.95C231.186 96.1022 230.719 96.1733 230.25 96.16C229.941 96.1781 229.632 96.1295 229.344 96.0173C229.056 95.9051 228.795 95.7321 228.58 95.51C228.109 94.8712 227.895 94.079 227.98 93.29V88.64H226.66V87.46H228V85.46L229.5 85Z" fill="white"/>
<path d="M245.56 95.61C244.564 96.0155 243.494 96.2063 242.42 96.17C239.07 96.17 236.55 94.05 236.55 90.17C236.502 89.3407 236.63 88.5106 236.925 87.734C237.22 86.9575 237.675 86.2518 238.261 85.663C238.847 85.0742 239.551 84.6155 240.326 84.3169C241.101 84.0183 241.93 83.8865 242.76 83.93C243.728 83.8859 244.694 84.0674 245.58 84.46L245.21 85.71C244.458 85.3636 243.638 85.1926 242.81 85.21C240.03 85.21 238.17 87 238.17 90.11C238.17 93.02 239.85 94.89 242.74 94.89C243.599 94.905 244.451 94.738 245.24 94.4L245.56 95.61Z" fill="white"/>
<path d="M247.44 83.48H249V88.8C249.264 88.3426 249.648 87.9658 250.11 87.71C250.592 87.4251 251.14 87.2733 251.7 87.27C252.85 87.27 254.7 87.97 254.7 90.92V96H253.15V91.1C253.15 89.73 252.64 88.56 251.15 88.56C250.685 88.5706 250.235 88.7255 249.863 89.0033C249.49 89.281 249.213 89.6678 249.07 90.11C248.987 90.3509 248.953 90.6058 248.97 90.86V96H247.42L247.44 83.48Z" fill="white"/>
<path d="M262 96.0001L261.88 94.9301H261.82C261.518 95.3343 261.123 95.6604 260.669 95.8813C260.215 96.1022 259.715 96.2115 259.21 96.2C258.875 96.2235 258.539 96.1774 258.223 96.0646C257.907 95.9518 257.618 95.7747 257.373 95.5445C257.129 95.3144 256.935 95.0361 256.804 94.7272C256.672 94.4184 256.606 94.0857 256.61 93.7501C256.61 91.68 258.44 90.5601 261.74 90.5701V90.4001C261.778 90.1337 261.755 89.8621 261.672 89.6061C261.589 89.3502 261.449 89.1166 261.261 88.9235C261.074 88.7303 260.845 88.5827 260.591 88.492C260.338 88.4012 260.067 88.3698 259.8 88.4001C259.012 88.404 258.24 88.6255 257.57 89.0401L257.22 88.0401C258.07 87.5378 259.042 87.2784 260.03 87.2901C262.64 87.2901 263.27 89.07 263.27 90.78V94.0001C263.263 94.6694 263.31 95.3382 263.41 96.0001H262ZM261.77 91.6501C260.08 91.6501 258.16 91.91 258.16 93.57C258.152 93.7584 258.182 93.9464 258.25 94.1223C258.318 94.2983 258.421 94.4583 258.553 94.5926C258.685 94.7268 258.844 94.8323 259.019 94.9024C259.194 94.9725 259.382 95.0057 259.57 95.0001C260.021 95.0134 260.465 94.8817 260.835 94.6243C261.206 94.3669 261.485 93.9974 261.63 93.57C261.69 93.4136 261.72 93.2475 261.72 93.0801L261.77 91.6501Z" fill="white"/>
<path d="M265.73 90.25C265.73 89.15 265.73 88.25 265.66 87.46H267.05L267.12 88.92C267.425 88.3999 267.864 87.9719 268.392 87.6814C268.921 87.3909 269.518 87.2487 270.12 87.27C272.18 87.27 273.73 89.01 273.73 91.6C273.73 94.67 271.86 96.19 269.85 96.19C269.335 96.2106 268.823 96.0981 268.364 95.8633C267.906 95.6286 267.515 95.2796 267.23 94.85V99.48H265.7L265.73 90.25ZM267.26 92.52C267.267 92.7348 267.29 92.9488 267.33 93.16C267.456 93.6837 267.754 94.1498 268.176 94.4835C268.599 94.8173 269.122 94.9992 269.66 95C271.3 95 272.25 93.66 272.25 91.7C272.25 89.99 271.35 88.53 269.71 88.53C269.162 88.5452 268.635 88.742 268.211 89.0896C267.788 89.4372 267.492 89.9158 267.37 90.45C267.308 90.6583 267.271 90.8731 267.26 91.09V92.52Z" fill="white"/>
<path d="M277.63 85V87.45H279.86V88.63H277.63V93.23C277.63 94.29 277.93 94.89 278.8 94.89C279.104 94.8962 279.407 94.8592 279.7 94.78L279.77 95.95C279.326 96.1022 278.859 96.1733 278.39 96.16C278.081 96.1781 277.772 96.1295 277.484 96.0173C277.196 95.9051 276.935 95.7321 276.72 95.51C276.249 94.8712 276.035 94.079 276.12 93.29V88.64H274.79V87.46H276.12V85.46L277.63 85Z" fill="white"/>
<path d="M282.36 92C282.321 92.3977 282.369 92.799 282.502 93.1759C282.634 93.5528 282.848 93.8962 283.127 94.1821C283.406 94.4679 283.744 94.6892 284.118 94.8305C284.492 94.9718 284.892 95.0297 285.29 95C286.099 95.0273 286.905 94.8771 287.65 94.56L287.91 95.67C287.015 96.0464 286.05 96.2271 285.08 96.2C284.512 96.2301 283.944 96.1387 283.414 95.9319C282.884 95.7251 282.404 95.4076 282.007 95.0006C281.609 94.5936 281.303 94.1066 281.109 93.5719C280.915 93.0372 280.837 92.4673 280.88 91.9C280.88 89.32 282.4 87.3 284.88 87.3C287.67 87.3 288.41 89.75 288.41 91.3C288.41 91.61 288.41 91.86 288.36 92.02L282.36 92ZM286.91 90.89C286.956 90.5797 286.934 90.2631 286.848 89.9616C286.761 89.6601 286.611 89.3806 286.407 89.142C286.203 88.9033 285.951 88.711 285.667 88.5778C285.383 88.4447 285.074 88.3738 284.76 88.37C284.12 88.4151 283.519 88.6992 283.079 89.166C282.638 89.6327 282.388 90.2481 282.38 90.89H286.91Z" fill="white"/>
<path d="M290.34 90.12C290.34 89.12 290.34 88.25 290.26 87.46H291.62L291.68 89.14H291.74C291.887 88.6182 292.196 88.1563 292.621 87.8204C293.047 87.4845 293.568 87.2919 294.11 87.27C294.256 87.2487 294.404 87.2487 294.55 87.27V88.73C294.374 88.7129 294.196 88.7129 294.02 88.73C293.489 88.7526 292.985 88.9684 292.602 89.3366C292.219 89.7049 291.983 90.2005 291.94 90.73C291.894 90.9707 291.871 91.2151 291.87 91.46V96H290.34V90.12Z" fill="white"/>
</g>
<defs>
<clipPath id="clip0">
<rect width="337.18" height="129.45" fill="white"/>
</clipPath>
</defs>
</svg>
