<svg width="20" height="9" viewBox="0 0 20 9" fill="none" xmlns="http://www.w3.org/2000/svg">
<path fill-rule="evenodd" clip-rule="evenodd" d="M19.531 8.26455C19.4613 8.3184 19.3786 8.36113 19.2875 8.39029C19.1963 8.41944 19.0987 8.43445 19 8.43445C18.9014 8.43445 18.8037 8.41944 18.7126 8.39029C18.6214 8.36113 18.5387 8.3184 18.469 8.26455L10 1.73308L1.531 8.26455C1.46127 8.31832 1.37849 8.36097 1.28738 8.39007C1.19627 8.41917 1.09862 8.43415 1 8.43415C0.901386 8.43415 0.803736 8.41917 0.712627 8.39007C0.621517 8.36097 0.538734 8.31832 0.469002 8.26455C0.399271 8.21078 0.343956 8.14694 0.306217 8.07669C0.268478 8.00644 0.249056 7.93114 0.249056 7.8551C0.249056 7.77906 0.268478 7.70376 0.306217 7.63351C0.343956 7.56326 0.399271 7.49942 0.469002 7.44566L9.469 0.505896C9.53867 0.45204 9.62144 0.409311 9.71255 0.380157C9.80367 0.351002 9.90135 0.335995 10 0.335995C10.0987 0.335995 10.1963 0.351002 10.2875 0.380157C10.3786 0.409311 10.4613 0.45204 10.531 0.505896L19.531 7.44566C19.6008 7.49938 19.6563 7.56319 19.6941 7.63345C19.7319 7.70371 19.7513 7.77903 19.7513 7.8551C19.7513 7.93117 19.7319 8.00649 19.6941 8.07675C19.6563 8.14701 19.6008 8.21083 19.531 8.26455Z" fill="#BBC8C8"/>
</svg>
