<svg width="24" height="24" viewBox="0 0 24 24" fill="none" xmlns="http://www.w3.org/2000/svg">
<path fill-rule="evenodd" clip-rule="evenodd" d="M24 24H19.3846V15.5951C19.3846 13.2894 18.4073 12.0033 16.6546 12.0033C14.7473 12.0033 13.6154 13.3434 13.6154 15.5951V24H9V8.38865H13.6154V10.1443C13.6154 10.1443 15.0635 7.5 18.3265 7.5C21.5908 7.5 24 9.57271 24 13.8622C24 18.1505 24 24 24 24ZM2.25046 4.5C1.00727 4.5 0 3.49228 0 2.24954C0 1.00772 1.00727 0 2.25046 0C3.49273 0 4.5 1.00772 4.5 2.24954C4.50092 3.49228 3.49273 4.5 2.25046 4.5ZM0 24H4.5V9H0V24Z" fill="white"/>
</svg>
