<svg width="20" height="9" viewBox="0 0 20 9" fill="none" xmlns="http://www.w3.org/2000/svg">
<path fill-rule="evenodd" clip-rule="evenodd" d="M0.468998 0.506083C0.538667 0.452226 0.62143 0.409497 0.712548 0.380343C0.803665 0.351188 0.901347 0.336182 0.999998 0.336182C1.09865 0.336182 1.19633 0.351188 1.28745 0.380343C1.37857 0.409497 1.46133 0.452226 1.531 0.506083L10 7.03755L18.469 0.506083C18.5387 0.452313 18.6215 0.409661 18.7126 0.380562C18.8037 0.351462 18.9014 0.336484 19 0.336484C19.0986 0.336484 19.1963 0.351462 19.2874 0.380562C19.3785 0.409661 19.4613 0.452313 19.531 0.506083C19.6007 0.559852 19.656 0.623685 19.6938 0.693938C19.7315 0.764191 19.7509 0.839487 19.7509 0.915528C19.7509 0.99157 19.7315 1.06687 19.6938 1.13712C19.656 1.20737 19.6007 1.27121 19.531 1.32497L10.531 8.26473C10.4613 8.31859 10.3786 8.36132 10.2874 8.39047C10.1963 8.41963 10.0986 8.43464 10 8.43464C9.90135 8.43464 9.80367 8.41963 9.71255 8.39047C9.62143 8.36132 9.53867 8.31859 9.469 8.26473L0.468998 1.32497C0.399153 1.27125 0.343739 1.20744 0.305929 1.13718C0.26812 1.06692 0.248657 0.991597 0.248657 0.915528C0.248657 0.83946 0.26812 0.764139 0.305929 0.69388C0.343739 0.62362 0.399153 0.559803 0.468998 0.506083Z" fill="#BBC8C8"/>
</svg>
