<svg width="29" height="24" viewBox="0 0 29 24" fill="none" xmlns="http://www.w3.org/2000/svg">
<path fill-rule="evenodd" clip-rule="evenodd" d="M8.92036 24C19.6234 24 25.4776 14.7655 25.4776 6.75819C25.4776 6.49532 25.4776 6.23392 25.4606 5.974C26.5994 5.11745 27.5822 4.05414 28.3636 2.83725C27.3028 3.32755 26.1754 3.6495 25.0224 3.79127C26.2364 3.03367 27.1454 1.84335 27.5808 0.438903C26.4377 1.14482 25.1883 1.64251 23.885 1.90981C21.6812 -0.529887 17.9953 -0.648032 15.6511 1.64694C14.1407 3.12671 13.4983 5.33307 13.9677 7.43753C9.28909 7.19238 4.9296 4.8915 1.97411 1.10642C0.429709 3.87545 1.21964 7.41685 3.77662 9.19494C2.85055 9.16688 1.94433 8.90696 1.13455 8.43733V8.51412C1.13596 11.3983 3.0888 13.8823 5.8032 14.4539C4.94662 14.6975 4.04749 14.733 3.17673 14.5572C3.93829 17.0265 6.12371 18.7174 8.61262 18.7662C6.552 20.4527 4.00636 21.3683 1.38556 21.3654C0.923236 21.3639 0.460909 21.3358 0 21.2782C2.66193 23.0563 5.75782 24 8.92036 23.9956" fill="white"/>
</svg>
