<svg width="24" height="24" viewBox="0 0 24 24" fill="none" xmlns="http://www.w3.org/2000/svg">
<path fill-rule="evenodd" clip-rule="evenodd" d="M7.04358 0.147272C5.09012 0.235413 3.39697 0.71304 2.02978 2.07445C0.657824 3.44302 0.186176 5.1427 0.097817 7.07584C0.0428909 8.28241 -0.278308 17.3978 0.653048 19.7883C1.28112 21.4011 2.51815 22.641 4.14563 23.2711C4.90505 23.5665 5.77192 23.7666 7.04358 23.8249C17.6766 24.3061 21.6181 24.0441 23.2802 19.7883C23.5751 19.0308 23.7781 18.1649 23.8343 16.8964C24.3202 6.23612 23.7554 3.92541 21.9023 2.07445C20.4324 0.608224 18.7034 -0.389909 7.04358 0.147272ZM7.14148 21.681C5.97729 21.6286 5.34564 21.4345 4.92414 21.2713C3.86383 20.8592 3.0674 20.0659 2.65784 19.0118C1.94858 17.1954 2.18381 8.56833 2.24709 7.17237C2.30918 5.805 2.5862 4.55555 3.55099 3.59077C4.74503 2.39968 6.28774 1.81605 16.7918 2.2901C18.1625 2.35204 19.4151 2.62837 20.3823 3.59077C21.5763 4.78186 22.1686 6.33623 21.6862 16.7999C21.6336 17.9613 21.439 18.5913 21.2754 19.0118C20.1948 21.7811 17.7088 22.1658 7.14148 21.681ZM16.9076 5.62755C16.9076 6.41605 17.5488 7.05686 18.3404 7.05686C19.1321 7.05686 19.7745 6.41605 19.7745 5.62755C19.7745 4.83905 19.1321 4.19824 18.3404 4.19824C17.5488 4.19824 16.9076 4.83905 16.9076 5.62755ZM5.83521 11.9855C5.83521 15.3634 8.58032 18.1018 11.9666 18.1018C15.3529 18.1018 18.0981 15.3634 18.0981 11.9855C18.0981 8.60759 15.3529 5.87047 11.9666 5.87047C8.58032 5.87047 5.83521 8.60759 5.83521 11.9855ZM7.98688 11.9855C7.98688 9.79392 9.76839 8.01562 11.9666 8.01562C14.1649 8.01562 15.9464 9.79392 15.9464 11.9855C15.9464 14.1783 14.1649 15.9566 11.9666 15.9566C9.76839 15.9566 7.98688 14.1783 7.98688 11.9855Z" fill="white"/>
</svg>
