<svg width="277" height="50" viewBox="0 0 277 50" fill="none" xmlns="http://www.w3.org/2000/svg">
<path d="M70.7266 39.4H67.0395L63.1593 34.8304H58.2753V39.4H55.2059V25.96H64.5299C65.3536 25.96 66.1193 26.056 66.8271 26.248C67.535 26.44 68.1463 26.7216 68.6611 27.0928C69.1887 27.464 69.5941 27.9312 69.8772 28.4944C70.1732 29.0576 70.3212 29.6912 70.3212 30.3952C70.3212 31.496 69.9802 32.4112 69.2981 33.1408C68.6289 33.8576 67.7151 34.3504 66.5569 34.6192L70.7266 39.4ZM58.256 32.296H64.3562C65.3729 32.296 66.0936 32.136 66.5183 31.816C66.9558 31.496 67.1746 31.0288 67.1746 30.4144C67.1746 29.8 66.9558 29.3328 66.5183 29.0128C66.0936 28.6928 65.3729 28.5328 64.3562 28.5328H58.256V32.296ZM76.2601 36.8272H87.1091V39.4H73.1907V25.96H86.9161V28.5328H76.2601V31.2976H85.1594V33.8704H76.2601V36.8272ZM88.0043 25.96H91.3826L96.4789 36.3472L101.556 25.96H104.896L98.0812 39.4H94.8188L88.0043 25.96ZM109.798 36.8272H120.647V39.4H106.728V25.96H120.453V28.5328H109.798V31.2976H118.697V33.8704H109.798V36.8272ZM138.838 39.4H135.151L131.271 34.8304H126.387V39.4H123.318V25.96H132.642C133.465 25.96 134.231 26.056 134.939 26.248C135.647 26.44 136.258 26.7216 136.773 27.0928C137.301 27.464 137.706 27.9312 137.989 28.4944C138.285 29.0576 138.433 29.6912 138.433 30.3952C138.433 31.496 138.092 32.4112 137.41 33.1408C136.741 33.8576 135.827 34.3504 134.669 34.6192L138.838 39.4ZM126.368 32.296H132.468C133.485 32.296 134.205 32.136 134.63 31.816C135.068 31.496 135.286 31.0288 135.286 30.4144C135.286 29.8 135.068 29.3328 134.63 29.0128C134.205 28.6928 133.485 28.5328 132.468 28.5328H126.368V32.296ZM148.291 31.1248C150.981 31.3424 152.873 31.7968 153.967 32.488C155.073 33.1664 155.627 34.1136 155.627 35.3296C155.627 35.9824 155.466 36.5904 155.144 37.1536C154.835 37.704 154.366 38.1776 153.735 38.5744C153.117 38.9712 152.345 39.2784 151.418 39.496C150.505 39.7136 149.469 39.8224 148.31 39.8224C147.049 39.8224 145.872 39.688 144.778 39.4192C143.684 39.1632 142.744 38.8176 141.959 38.3824C141.174 37.9472 140.537 37.5248 140.048 37.1152L141.824 35.0224C143.446 36.5072 145.634 37.2496 148.388 37.2496C151.142 37.2496 152.519 36.7056 152.519 35.6176C152.519 35.144 152.229 34.7856 151.65 34.5424C151.084 34.2864 149.874 34.0816 148.021 33.928C146.682 33.8128 145.55 33.6464 144.623 33.4288C143.71 33.2112 142.937 32.9296 142.307 32.584C141.689 32.2384 141.245 31.8288 140.975 31.3552C140.705 30.8816 140.569 30.3888 140.569 29.8768C140.569 29.1984 140.743 28.5904 141.091 28.0528C141.451 27.5024 141.953 27.0416 142.596 26.6704C143.24 26.2992 143.999 26.0176 144.874 25.8256C145.762 25.6336 146.721 25.5376 147.751 25.5376C149.205 25.5376 150.556 25.7168 151.805 26.0752C153.066 26.4336 154.121 26.9392 154.97 27.592L153.272 29.7232C151.882 28.6736 150.041 28.136 147.751 28.1104C146.489 28.0976 145.492 28.232 144.758 28.5136C144.038 28.7824 143.677 29.16 143.677 29.6464C143.677 29.9152 143.787 30.1392 144.006 30.3184C144.224 30.4976 144.572 30.6448 145.048 30.76C145.524 30.8752 146.605 30.9968 148.291 31.1248ZM161.207 36.8272H172.056V39.4H158.137V25.96H171.863V28.5328H161.207V31.2976H170.106V33.8704H161.207V36.8272Z" fill="white"/>
<path d="M187.687 37.1728C189.733 37.1728 191.232 36.4432 192.185 34.984L195.003 36.3856C194.514 37.1152 193.884 37.736 193.111 38.248C192.339 38.76 191.49 39.1504 190.563 39.4192C189.637 39.688 188.646 39.8224 187.59 39.8224C186.342 39.8224 185.197 39.6624 184.154 39.3424C183.125 39.0096 182.237 38.536 181.49 37.9216C180.757 37.3072 180.19 36.552 179.791 35.656C179.405 34.76 179.212 33.768 179.212 32.68C179.212 31.592 179.412 30.6 179.811 29.704C180.21 28.808 180.776 28.0528 181.509 27.4384C182.256 26.824 183.157 26.3568 184.212 26.0368C185.28 25.704 186.451 25.5376 187.725 25.5376C188.742 25.5376 189.701 25.672 190.602 25.9408C191.503 26.2096 192.333 26.6 193.092 27.112C193.864 27.624 194.488 28.2384 194.965 28.9552L192.127 30.3568C191.651 29.6272 191.039 29.0832 190.293 28.7248C189.559 28.3664 188.691 28.1872 187.687 28.1872C186.889 28.1872 186.162 28.2832 185.505 28.4752C184.849 28.6672 184.283 28.9552 183.807 29.3392C183.343 29.7104 182.983 30.184 182.726 30.76C182.481 31.3232 182.359 31.9632 182.359 32.68C182.359 33.3968 182.481 34.0432 182.726 34.6192C182.983 35.1824 183.343 35.656 183.807 36.04C184.283 36.4112 184.849 36.6928 185.505 36.8848C186.162 37.0768 186.889 37.1728 187.687 37.1728ZM204.901 39.8224C204.284 39.8224 203.595 39.7712 202.836 39.6688C202.076 39.5664 201.324 39.368 200.577 39.0736C199.844 38.7664 199.194 38.3824 198.627 37.9216C198.074 37.4608 197.611 36.9232 197.237 36.3088C196.877 35.6944 196.633 35.0672 196.504 34.4272C196.375 33.7872 196.311 33.2048 196.311 32.68C196.311 32.1552 196.375 31.5728 196.504 30.9328C196.633 30.2928 196.877 29.6656 197.237 29.0512C197.611 28.4368 198.074 27.8992 198.627 27.4384C199.194 26.9776 199.844 26.6 200.577 26.3056C201.324 25.9984 202.076 25.7936 202.836 25.6912C203.595 25.5888 204.284 25.5376 204.901 25.5376C205.519 25.5376 206.208 25.5888 206.967 25.6912C207.726 25.7936 208.473 25.9984 209.206 26.3056C209.953 26.6 210.603 26.9776 211.156 27.4384C211.722 27.8992 212.185 28.4368 212.546 29.0512C212.919 29.6656 213.17 30.2928 213.299 30.9328C213.427 31.5728 213.492 32.1552 213.492 32.68C213.492 33.2048 213.427 33.7872 213.299 34.4272C213.17 35.0672 212.919 35.6944 212.546 36.3088C212.185 36.9232 211.722 37.4608 211.156 37.9216C210.603 38.3824 209.953 38.7664 209.206 39.0736C208.473 39.368 207.726 39.5664 206.967 39.6688C206.208 39.7712 205.519 39.8224 204.901 39.8224ZM204.901 37.1728C205.725 37.1728 206.471 37.0768 207.141 36.8848C207.823 36.68 208.402 36.3856 208.878 36.0016C209.354 35.6176 209.715 35.144 209.959 34.5808C210.216 34.0176 210.345 33.384 210.345 32.68C210.345 31.976 210.216 31.3424 209.959 30.7792C209.715 30.216 209.354 29.7424 208.878 29.3584C208.402 28.9744 207.823 28.6864 207.141 28.4944C206.471 28.2896 205.725 28.1872 204.901 28.1872C204.078 28.1872 203.325 28.2896 202.643 28.4944C201.973 28.6864 201.401 28.9744 200.925 29.3584C200.448 29.7424 200.082 30.216 199.824 30.7792C199.58 31.3424 199.457 31.976 199.457 32.68C199.457 34.1008 199.94 35.208 200.905 36.0016C201.883 36.7824 203.215 37.1728 204.901 37.1728ZM223.458 25.96C224.706 25.96 225.845 26.1136 226.875 26.4208C227.917 26.728 228.805 27.176 229.539 27.7648C230.272 28.3408 230.832 29.0512 231.218 29.896C231.617 30.728 231.817 31.656 231.817 32.68C231.817 33.704 231.617 34.6384 231.218 35.4832C230.832 36.3152 230.272 37.0256 229.539 37.6144C228.805 38.1904 227.917 38.632 226.875 38.9392C225.845 39.2464 224.706 39.4 223.458 39.4H216.277V25.96H223.458ZM223.226 36.7888C224.037 36.7888 224.777 36.7056 225.446 36.5392C226.115 36.36 226.688 36.104 227.164 35.7712C227.653 35.4256 228.026 34.9904 228.284 34.4656C228.541 33.9408 228.67 33.3456 228.67 32.68C228.67 32.1808 228.58 31.688 228.4 31.2016C228.232 30.7024 227.936 30.2608 227.512 29.8768C227.087 29.4928 226.521 29.1792 225.813 28.936C225.105 28.6928 224.243 28.5712 223.226 28.5712H219.365V36.7888H223.226ZM237.671 39.4H234.582V25.96H237.671V39.4ZM253.687 25.96H256.679V39.4H253.976L244.286 29.6848V39.4H241.293V25.96H244.575L253.687 35.176V25.96ZM275.855 31.816V36.6736C275.147 37.6208 274.13 38.3824 272.805 38.9584C271.479 39.5344 269.935 39.8224 268.171 39.8224C266.846 39.8224 265.636 39.6624 264.542 39.3424C263.461 39.0096 262.541 38.536 261.782 37.9216C261.022 37.3072 260.443 36.5584 260.044 35.6752C259.645 34.7792 259.446 33.7808 259.446 32.68C259.446 31.5792 259.645 30.5872 260.044 29.704C260.443 28.808 261.022 28.0528 261.782 27.4384C262.541 26.824 263.461 26.3568 264.542 26.0368C265.636 25.704 266.846 25.5376 268.171 25.5376C268.957 25.5376 269.748 25.6144 270.546 25.768C271.344 25.9216 272.155 26.1904 272.978 26.5744C273.802 26.9584 274.542 27.464 275.198 28.0912L272.785 29.8384C272.193 29.2624 271.524 28.84 270.778 28.5712C270.044 28.2896 269.182 28.1488 268.191 28.1488C266.415 28.1488 265.038 28.5392 264.06 29.32C263.082 30.088 262.593 31.208 262.593 32.68C262.593 34.152 263.088 35.2784 264.079 36.0592C265.083 36.8272 266.492 37.2112 268.307 37.2112C269.066 37.2112 269.767 37.1408 270.411 37C271.067 36.8592 271.601 36.6608 272.013 36.4048C272.425 36.1488 272.74 35.8864 272.959 35.6176V34.312H267.863V31.816H275.855Z" fill="#4A90E2"/>
<path d="M26.5049 48.5092C26.5049 48.8637 26.6396 49.2036 26.8792 49.4543C27.1189 49.7049 27.4439 49.8457 27.7829 49.8457H32.3044C32.6433 49.8457 32.9684 49.7049 33.208 49.4543C33.4477 49.2036 33.5824 48.8637 33.5824 48.5092V19.5914C33.5824 19.2365 33.4478 18.8962 33.2083 18.645C32.9687 18.3937 32.6437 18.252 32.3044 18.251H27.4204C27.0811 18.252 26.7561 18.3937 26.5165 18.645C26.277 18.8962 26.1424 19.2365 26.1424 19.5914V19.9313C26.1424 20.2858 26.2771 20.6257 26.5168 20.8764C26.7564 21.127 27.0815 21.2678 27.4204 21.2678H28.9151C29.2551 21.2678 29.5811 21.409 29.8214 21.6604C30.0618 21.9118 30.1968 22.2527 30.1968 22.6082L30.1595 45.8441C30.1565 46.1959 30.0211 46.5322 29.7825 46.7802C29.544 47.0282 29.2216 47.1679 28.8852 47.1689H27.7866C27.4467 47.1689 27.1207 47.3101 26.8803 47.5614C26.6399 47.8128 26.5049 48.1538 26.5049 48.5092Z" fill="white"/>
<path d="M7.08118 48.5092C7.08118 48.8637 6.94654 49.2036 6.70687 49.4543C6.46721 49.7049 6.14215 49.8457 5.80321 49.8457H1.28172C0.942431 49.8457 0.616983 49.705 0.376722 49.4545C0.136461 49.204 0.000989169 48.8641 0 48.5092V19.5914C0.000985865 19.2362 0.13634 18.8959 0.376494 18.6447C0.616648 18.3936 0.942088 18.252 1.28172 18.251H6.16194C6.50157 18.252 6.827 18.3936 7.06716 18.6447C7.30731 18.8959 7.44266 19.2362 7.44365 19.5914V19.9313C7.44266 20.2862 7.30719 20.6261 7.06693 20.8766C6.82667 21.1271 6.50122 21.2678 6.16194 21.2678H4.66723C4.32795 21.2689 4.0029 21.4105 3.76334 21.6618C3.52378 21.913 3.38925 22.2534 3.38926 22.6082L3.42662 45.8441C3.42662 46.0198 3.45982 46.1937 3.52433 46.3559C3.58883 46.5181 3.68336 46.6653 3.80248 46.7892C3.92159 46.913 4.06295 47.011 4.21841 47.0775C4.37387 47.144 4.54037 47.1777 4.70834 47.1767H5.80695C6.14429 47.1787 6.46726 47.3198 6.7058 47.5692C6.94434 47.8187 7.07922 48.1565 7.08118 48.5092Z" fill="white"/>
<path d="M8.68422 44.8515C8.68323 45.0219 8.61784 45.1849 8.50231 45.3049C8.38679 45.425 8.23053 45.4924 8.06765 45.4924H5.90033C5.7381 45.4914 5.58279 45.4235 5.46807 45.3036C5.35335 45.1836 5.28848 45.0212 5.2875 44.8515V30.9983C5.2875 30.8283 5.35206 30.6653 5.46699 30.5451C5.58191 30.4249 5.73779 30.3574 5.90033 30.3574H8.24328C8.40581 30.3574 8.56169 30.4249 8.67662 30.5451C8.79155 30.6653 8.85611 30.8283 8.85611 30.9983V31.1507C8.85513 31.3204 8.79025 31.4828 8.67554 31.6027C8.56082 31.7227 8.40551 31.7906 8.24328 31.7916H7.52582C7.36294 31.7916 7.20668 31.859 7.09116 31.9791C6.97563 32.0991 6.91024 32.2621 6.90925 32.4325L6.92794 43.5698C6.92893 43.7401 6.99432 43.9031 7.10984 44.0232C7.22536 44.1432 7.38163 44.2106 7.5445 44.2106H8.06765C8.14844 44.2101 8.22854 44.2263 8.30332 44.2583C8.3781 44.2903 8.44611 44.3374 8.50341 44.397C8.56071 44.4565 8.60618 44.5273 8.63722 44.6054C8.66825 44.6834 8.68422 44.767 8.68422 44.8515Z" fill="white"/>
<path d="M16.6735 26.6098C22.2064 26.6098 26.6918 25.5828 26.6918 24.3159C26.6918 23.049 22.2064 22.022 16.6735 22.022C11.1406 22.022 6.65521 23.049 6.65521 24.3159C6.65521 25.5828 11.1406 26.6098 16.6735 26.6098Z" fill="white"/>
<path d="M13.912 17.7117C9.51383 15.367 15.6384 10.1852 13.8485 6.82841C13.4524 6.07811 11.7073 6.75026 12.0773 7.44195C13.3814 9.89215 10.7843 12.104 10.5489 14.5346C10.3808 16.2932 11.031 18.0165 12.5705 18.8332C13.2207 19.181 14.7789 18.1728 13.912 17.7117Z" fill="white"/>
<path d="M16.5539 11.1075C17.1293 9.62642 17.5777 7.98122 17.1779 6.39464C16.6398 4.23361 15.0255 2.85807 14.9359 0.45867C14.9022 -0.38542 13.1086 0.0678795 13.1347 0.755656C13.1677 2.21156 13.5742 3.63144 14.3118 4.86669C15.5898 7.0199 15.743 8.74715 14.8275 11.0997C14.48 11.9867 16.2774 11.7405 16.524 11.0997L16.5539 11.1075Z" fill="white"/>
<path d="M40.26 30.162V27.4047H37.6233V30.162H40.26ZM40.26 39.7635V37.2524H37.6233V40.0097H38.4708L37.6233 42.7671H38.9181L40.26 39.7635Z" fill="white"/>
</svg>
