<svg xmlns="http://www.w3.org/2000/svg" viewBox="0 0 485.62 249"><defs><style>.cls-1{fill:#fefefe;}.cls-2{fill:#f47c65;}.cls-3{fill:#fff;}.cls-4{fill:#9e5041;}.cls-5{fill:#f37c64;}.cls-6{fill:#df725c;}.cls-7{fill:#c76652;}.cls-8{fill:#9d5041;}</style></defs><g id="Layer_2" data-name="Layer 2"><g id="Layer_1-2" data-name="Layer 1"><path class="cls-1" d="M70.84,122.15c2,2.37.83,4.73-.13,7.13-2.65-1.86-2-4.28-1.33-6.65C69.56,122,70.41,121.62,70.84,122.15Z"/><path class="cls-1" d="M86.64,60.66c0-.55,0-1.38.88-1.12a1.74,1.74,0,0,1,1.26,2.12c-.32.27-.77,1-1.19.94C86.36,62.54,86.71,61.41,86.64,60.66Z"/><path class="cls-1" d="M155.86,114.46h0S155.86,114.51,155.86,114.46Z"/><path class="cls-1" d="M216.29,147c1.79,8.81,3.49,16.64,5.72,24.34.45,1.55-.52,1.58-1.6,1.6-3.1.05-6.22,0-9.31.24-2.6.21-3-.72-2.25-3C211.28,162.8,213.62,155.36,216.29,147Z"/><path class="cls-1" d="M242.48,150.36c-.34,1.7-.78,3.37-1.18,5-1.57-.57-1.59-2.12-2-3.35q-5.25-15.59-11.72-30.71c-1.69-4-3-4.69-7.24-3.91-2.45.46-4.8,1.33-7.21,2a9.85,9.85,0,0,0-6.85,6.29c-3.88,9.46-7.15,19.13-10.39,28.81-1.65,5-3.61,9.82-5.43,14.72-1.57,4.21-8.7,6.48-12.57,4.09a2.54,2.54,0,0,1-1-3.28c4.24-12.46,2.65-25.38,3.18-38.15.71-17.17.38-34.35.85-51.51.17-6.58.47-13.17.62-19.76.07-2.71-.77-4.23-3.64-4.48-6.7-.57-13.42-.88-20.1-1.64-2-.23-2.89,1.08-2.49,2.78,1.54,6.4,1,13.1.34,19.26-.73,7,1.55,13.85-.18,20.68a3.17,3.17,0,0,0,0,2.21c2.63,4.9.19,9.9.37,14.83a1.54,1.54,0,0,0,0,.19.65.65,0,0,0,0,.18c-.16,1.14-.05,2.73-1.29,3,0,.12,0,.23,0,.35l-.19-.31h0c-2,.15-1.51-1.74-1.67-2.81-.19,2-.27,4,1.8,5.45a3.51,3.51,0,0,1,1.32,3c-.07,6.46,2,13.05-1.74,19.28-1.11,1.82-.83,4.31-.38,6.59,1.73,8.94-.6,16.41-8.23,21.87a40.31,40.31,0,0,0-3.9,3.49c-4.17,3.91-9.18,6-14.54,8-6.76,2.54-12.61.45-18.73-1.11a10.44,10.44,0,0,1-6.94-5.36c-1.47-3.17-3.72-5.5-5.94-8a15.57,15.57,0,0,1-3.49-5.7c-.81.76-.47,2.46-1.48,2.89a.32.32,0,0,0,0,.09l-.08-.07a1.48,1.48,0,0,1-.59.08c-1.62,0-2.5-1.5-3.21-2.85a11.19,11.19,0,0,1-1.17-3.92c-.15-1.23-.36-2.78,1.25-3.06S88,156.87,88.52,158a44,44,0,0,1-.81-18.34,1.63,1.63,0,0,1,.6-.49,27.38,27.38,0,0,0,.55-3.48c0-.6,0-1.21,0-1.83,0,0,0,0,0,0a6.51,6.51,0,0,1,.12-1.64c1.1,2.5.88,5.12.76,7.72a1.18,1.18,0,0,0,.51.32.74.74,0,0,0,.63-.79c.24-10.08.82-20.2-2.91-29.89a11.16,11.16,0,0,1-.73-3.15c-1.32-1.42-1.79-2.67-.78-4.35a2.51,2.51,0,0,1,1,1.67,7.32,7.32,0,0,1,.23-.76c1.38-3.78,1.24-7.58.65-11.42-.4-2.56-.52-5,1.79-6.81A2.9,2.9,0,0,0,91,82a57.16,57.16,0,0,1,.59-14.49c.12-.86-.06-1.77.11-2.61a6.5,6.5,0,0,0-2.32-6.84,1,1,0,0,1-.28.2c-.05-.18-.09-.35-.15-.51a10.83,10.83,0,0,0-2.9-1.33c-5.68-1.68-11.55-3.05-17.62-1.83-2.14.43-3.25,1.34-3.22,3.72.1,7.59,0,15.19,0,22.78,0,1.13,0,2.38,1,3.11,2.1,1.58,1.82,3.61,1.38,5.75-.72,3.46-1,3.56-3.87,1.32a4.31,4.31,0,0,1,1.4,4.07c-1.44,6.8-.18,13.65-.53,20.48a264.29,264.29,0,0,0,.53,27.71,75.86,75.86,0,0,1-.46,8.89,31.51,31.51,0,0,0,2.53,14.79c2,4.8,3.36,9.8,6.58,14,5,6.54,10.3,12.75,17.12,17.52a25.49,25.49,0,0,1,3.32,3c3.43,3.39,7,6.47,12.38,5.55,1.33-.23,2.69.45,4,.76,9.21,2.1,17.84.78,26.55-3a157.34,157.34,0,0,0,16.34-8c7.25-4.23,13.4-9.47,18-16.51.61-.94,1.21-1.89,1.87-2.8,1.93-2.64,2.82-2.55,4.4.43a17.47,17.47,0,0,0,1.3,2.68c3.7,4.85,4.07,9.9,1.26,15.3-1.24,2.38-.16,4,2.09,5.11,2.79,1.4,5.66,2.6,8.52,3.84s4.46.24,5.53-2.44a87.21,87.21,0,0,0,3.18-8.37c.87-3.08,2.71-4.65,6-4.44,5.87.39,11.67-1.15,17.54-.73,1.38.1,3.06-.45,3.89,1.34-3.52,6.57-8.27,12.28-12.69,18.21-2.78,3.73-6.54,6.5-10,9.48-10.16,8.68-21.05,16.32-33.71,21-3.07,1.13-6.55,1.23-9.51,2.54a46.66,46.66,0,0,1-9,3.24c-6.94,1.48-13.8,3.38-21,3.49-5.68.09-11.46,1.09-17,.36-13-1.72-26-3.44-38.43-8.73a116.35,116.35,0,0,1-45.6-34.39c-2.08-2.56-4.31-5.27-5.31-8.6-.4-1.34-2-1.19-2.74-2.4-5-7.8-9.95-15.7-12.89-24.49-1.7-5.08-4.21-9.94-5.14-15.26-2.29-13.07-4.75-26-3.73-39.56.73-9.79,3-19,5.67-28.22,2.77-9.42,6.57-18.58,12.43-26.51,6.91-9.35,13.36-19.16,22.11-27,2-1.83,3.57-4.71,7.15-4.67,1.1,0,.82-2.39,2.26-3.32,5.91-3.79,11.86-7.5,17.83-11.2C75.21,9.75,83.5,7,91.62,4,97.39,1.9,103.4-.26,110,0c9.47.41,19,.14,28.44.06,4.72,0,9.6.61,13.21,3.23,5.07,3.68,10.94,4.8,16.43,7.1C175,13.33,182,16.19,188.18,20.53c4.58,3.21,9.49,6.1,13.56,9.87,10,9.23,19.5,18.75,26.53,30.71,9.91,16.85,15.59,34.82,16.28,54.18C245,127,244.82,138.77,242.48,150.36Z"/><path class="cls-2" d="M155.87,114.45s0,.06,0,0Z"/><path class="cls-2" d="M242.48,150.36c-.34,1.7-.78,3.37-1.18,5-1.57-.57-1.59-2.12-2-3.35q-5.25-15.59-11.72-30.71c-1.69-4-3-4.69-7.24-3.91-2.45.46-4.8,1.33-7.21,2a9.85,9.85,0,0,0-6.85,6.29c-3.88,9.46-7.15,19.13-10.39,28.81-1.65,5-3.61,9.82-5.43,14.72-1.57,4.21-8.7,6.48-12.57,4.09a2.54,2.54,0,0,1-1-3.28c4.24-12.46,2.65-25.38,3.18-38.15.71-17.17.38-34.35.85-51.51.17-6.58.47-13.17.62-19.76.07-2.71-.77-4.23-3.64-4.48-6.7-.57-13.42-.88-20.1-1.64-2-.23-2.89,1.08-2.49,2.78,1.54,6.4,1,13.1.34,19.26-.73,7,1.55,13.85-.18,20.68a3.17,3.17,0,0,0,0,2.21c2.63,4.9.19,9.9.37,14.83a1.54,1.54,0,0,0,0,.19.65.65,0,0,0,0,.18c-.16,1.14-.05,2.73-1.29,3l-.21,0h0c-2,.15-1.51-1.74-1.67-2.81-.19,2-.27,4,1.8,5.45a3.51,3.51,0,0,1,1.32,3c-.07,6.46,2,13.05-1.74,19.28-1.11,1.82-.83,4.31-.38,6.59,1.73,8.94-.6,16.41-8.23,21.87a40.31,40.31,0,0,0-3.9,3.49c-4.17,3.91-9.18,6-14.54,8-6.76,2.54-12.61.45-18.73-1.11a10.44,10.44,0,0,1-6.94-5.36c-1.47-3.17-3.72-5.5-5.94-8a15.57,15.57,0,0,1-3.49-5.7c-.81.76-.47,2.46-1.48,2.89l0,0a1.48,1.48,0,0,1-.59.08c-1.62,0-2.5-1.5-3.21-2.85a11.19,11.19,0,0,1-1.17-3.92c-.15-1.23-.36-2.78,1.25-3.06S88,156.87,88.52,158a44,44,0,0,1-.81-18.34,1.63,1.63,0,0,1,.6-.49.44.44,0,0,1,.15,0,1,1,0,0,1,.83.38l.4.4a1.18,1.18,0,0,0,.51.32.74.74,0,0,0,.63-.79c.24-10.08.82-20.2-2.91-29.89a11.16,11.16,0,0,1-.73-3.15,8.3,8.3,0,0,1,.24-2.67h0a7.32,7.32,0,0,1,.23-.76c1.38-3.78,1.24-7.58.65-11.42-.4-2.56-.52-5,1.79-6.81A2.9,2.9,0,0,0,91,82a57.16,57.16,0,0,1,.59-14.49c.12-.86-.06-1.77.11-2.61a6.5,6.5,0,0,0-2.32-6.84L89,57.75a10.83,10.83,0,0,0-2.9-1.33c-5.68-1.68-11.55-3.05-17.62-1.83-2.14.43-3.25,1.34-3.22,3.72.1,7.59,0,15.19,0,22.78,0,1.13,0,2.38,1,3.11,2.1,1.58,1.82,3.61,1.38,5.75-.72,3.46-1,3.56-3.87,1.32a4.31,4.31,0,0,1,1.4,4.07c-1.44,6.8-.18,13.65-.53,20.48a264.29,264.29,0,0,0,.53,27.71,75.86,75.86,0,0,1-.46,8.89,31.51,31.51,0,0,0,2.53,14.79c2,4.8,3.36,9.8,6.58,14,5,6.54,10.3,12.75,17.12,17.52a25.49,25.49,0,0,1,3.32,3c3.43,3.39,7,6.47,12.38,5.55,1.33-.23,2.69.45,4,.76,9.21,2.1,17.84.78,26.55-3a157.34,157.34,0,0,0,16.34-8c7.25-4.23,13.4-9.47,18-16.51.61-.94,1.21-1.89,1.87-2.8,1.93-2.64,2.82-2.55,4.4.43a17.47,17.47,0,0,0,1.3,2.68c3.7,4.85,4.07,9.9,1.26,15.3-1.24,2.38-.16,4,2.09,5.11,2.79,1.4,5.66,2.6,8.52,3.84s4.46.24,5.53-2.44a87.21,87.21,0,0,0,3.18-8.37c.87-3.08,2.71-4.65,6-4.44,5.87.39,11.67-1.15,17.54-.73,1.38.1,3.06-.45,3.89,1.34-3.52,6.57-8.27,12.28-12.69,18.21-2.78,3.73-6.54,6.5-10,9.48-10.16,8.68-21.05,16.32-33.71,21-3.07,1.13-6.55,1.23-9.51,2.54a46.66,46.66,0,0,1-9,3.24c-6.94,1.48-13.8,3.38-21,3.49-5.68.09-11.46,1.09-17,.36-13-1.72-26-3.44-38.43-8.73a116.35,116.35,0,0,1-45.6-34.39c-2.08-2.56-4.31-5.27-5.31-8.6-.4-1.34-2-1.19-2.74-2.4-5-7.8-9.95-15.7-12.89-24.49-1.7-5.08-4.21-9.94-5.14-15.26-2.29-13.07-4.75-26-3.73-39.56.73-9.79,3-19,5.67-28.22,2.77-9.42,6.57-18.58,12.43-26.51,6.91-9.35,13.36-19.16,22.11-27,2-1.83,3.57-4.71,7.15-4.67,1.1,0,.82-2.39,2.26-3.32,5.91-3.79,11.86-7.5,17.83-11.2C75.21,9.75,83.5,7,91.62,4,97.39,1.9,103.4-.26,110,0c9.47.41,19,.14,28.44.06,4.72,0,9.6.61,13.21,3.23,5.07,3.68,10.94,4.8,16.43,7.1C175,13.33,182,16.19,188.18,20.53c4.58,3.21,9.49,6.1,13.56,9.87,10,9.23,19.5,18.75,26.53,30.71,9.91,16.85,15.59,34.82,16.28,54.18C245,127,244.82,138.77,242.48,150.36Z"/><path d="M227.7,118.77c-.93-2.29-2.33-3-4.59-2.78-3.9.31-7.51,1.74-11.22,2.75-3.11.84-4.95,2.68-6.25,5.76-5.47,13-9.22,26.55-14.36,39.63-3.62,9.2-3.56,9.22-13.5,8.67a4.72,4.72,0,0,1-.68-.24,53.85,53.85,0,0,0,3.67-17.72c.66-32.25,1.2-64.51,1.86-96.76.05-2.18-.7-2.65-2.71-2.78-7.46-.51-14.91-1.23-22.36-1.85-3.48-.29-4.5.6-3.5,3.91s.82,6.38.76,9.6c0,3.37-1.52,6.83.71,10.06.17.24-.1,1-.39,1.29-2.52,2.57-1.26,5.5-.83,8.34.53,3.43,1,6.8.19,10.32a9.23,9.23,0,0,0,1.53,7.82c.3.39,1.12,1,.19,1.43-2.16,1-1.1,2.79-1.26,4.24-.23,2.14-.28,4.29-.42,7.19,1.24-.28,1.13-1.87,1.29-3a.65.65,0,0,1,0-.18,1.54,1.54,0,0,1,0-.19c-.18-4.93,2.26-9.93-.37-14.83a3.17,3.17,0,0,1,0-2.21c1.73-6.83-.55-13.68.18-20.68.63-6.16,1.2-12.86-.34-19.26-.4-1.7.48-3,2.49-2.78,6.68.76,13.4,1.07,20.1,1.64,2.87.25,3.71,1.77,3.64,4.48-.15,6.59-.45,13.18-.62,19.76-.47,17.16-.14,34.34-.85,51.51-.53,12.77,1.06,25.69-3.18,38.15a2.54,2.54,0,0,0,1,3.28c3.87,2.39,11,.12,12.57-4.09,1.82-4.9,3.78-9.76,5.43-14.72,3.24-9.68,6.51-19.35,10.39-28.81a9.85,9.85,0,0,1,6.85-6.29c2.41-.65,4.76-1.52,7.21-2,4.23-.78,5.55-.06,7.24,3.91q6.44,15.14,11.72,30.71c.42,1.23.44,2.78,2,3.35C237.56,142.9,232.63,130.85,227.7,118.77Zm-4.54,70.32c-5.87-.42-11.67,1.12-17.54.73-3.26-.21-5.1,1.36-6,4.44a87.21,87.21,0,0,1-3.18,8.37c-1.07,2.68-2.68,3.67-5.53,2.44s-5.73-2.44-8.52-3.84c-2.25-1.14-3.33-2.73-2.09-5.11,2.81-5.4,2.44-10.45-1.26-15.3a17.47,17.47,0,0,1-1.3-2.68c-1.58-3-2.47-3.07-4.4-.43-.66.91-1.26,1.86-1.87,2.8-4.57,7-10.72,12.28-18,16.51a157.34,157.34,0,0,1-16.34,8c-8.71,3.82-17.34,5.14-26.55,3-1.34-.31-2.7-1-4-.76-5.42.92-9-2.16-12.38-5.55a25.49,25.49,0,0,0-3.32-3c-6.82-4.77-12.12-11-17.12-17.52-3.22-4.23-4.58-9.23-6.58-14a31.51,31.51,0,0,1-2.53-14.79,75.86,75.86,0,0,0,.46-8.89,264.29,264.29,0,0,1-.53-27.71c.35-6.83-.91-13.68.53-20.48a4.31,4.31,0,0,0-1.4-4.07c2.89,2.24,3.15,2.14,3.87-1.32.44-2.14.72-4.17-1.38-5.75-1-.73-.94-2-1-3.11,0-7.59,0-15.19,0-22.78,0-2.38,1.08-3.29,3.22-3.72,6.07-1.22,11.94.15,17.62,1.83A10.83,10.83,0,0,1,89,57.75c-.81-2.49-2.6-3.46-5.33-2.9a4,4,0,0,1-1.71-.19c-4.73-2.59-9.67-1.08-14.52-.87-2.36.1-3.27,1.18-3.22,3.76.16,8,0,15.94,0,23.92,0,1.76-1,4.22,2.47,4.06.73,0,.87,1,.59,1.48-.89,1.71-.55,3.64-1,5.47a3.46,3.46,0,0,1-.83-1.67c-.18-1-.15-2.11-1.74-1.28-.94.48-2.4.27-2.41,1.85s.82,1.38,2,1,1.07.67,1,1.32c-.38,5.92,0,11.93-.56,17.75-.7,6.68.34,13.23,0,19.84-.35,6.81,1.29,13.82.21,20.44-1.5,9.19,2.55,16.68,5.59,24.4C71.89,182.3,77.17,187,81.6,192s10.34,8,14.77,12.91c1.82,2,4.49,4.1,7.09,3.64a16.14,16.14,0,0,1,6.82.39,38,38,0,0,0,15.57.64c4.54-.82,8.69-3.2,12.94-4.2,7-1.65,12.48-5.76,18.2-9.2a47,47,0,0,0,17.55-18.53c.27-.51.3-1.52,1.38-1.38.8,1.83,1.2,4,2.44,5.4,4.35,5,3.15,9.89.58,15a7.07,7.07,0,0,1-.27.69c-1.07,1.66-.49,2.62,1.15,3.51a103,103,0,0,0,12.56,5.73c2.26.86,3.44.51,4.27-1.79,1.44-4,3.06-7.88,4.57-11.83.44-1.15.61-2.53,2.32-2.41,7.84.56,15.66-1.16,23.51-.17C226.22,188.64,224.54,189.19,223.16,189.09ZM211.1,173.18c3.09-.25,6.21-.19,9.31-.24,1.08,0,2.05-.05,1.6-1.6-2.23-7.7-3.93-15.53-5.72-24.34-2.67,8.36-5,15.8-7.44,23.21C208.12,172.46,208.5,173.39,211.1,173.18ZM90.38,165.25c1-.43.67-2.13,1.48-2.89a15.57,15.57,0,0,0,3.49,5.7c2.22,2.5,4.47,4.83,5.94,8a10.44,10.44,0,0,0,6.94,5.36c6.12,1.56,12,3.65,18.73,1.11,5.36-2,10.37-4.07,14.54-8a40.31,40.31,0,0,1,3.9-3.49c7.63-5.46,10-12.93,8.23-21.87-.45-2.28-.73-4.77.38-6.59,3.76-6.23,1.67-12.82,1.74-19.28a3.51,3.51,0,0,0-1.32-3c-2.07-1.46-2-3.5-1.8-5.45.16,1.07-.36,3,1.67,2.81h0c-1.31-2.27-.6-3.77-.49-5.26a1.42,1.42,0,0,0-1-1.4.92.92,0,0,0-1.22,1,15.33,15.33,0,0,1-.29,6.9c-.15.5.26,1.41,1.38,1.12s1.67.63,1.93,1.38c1.25,3.7-1.37,7.92,1.46,11.49.12.14-1.09,1.07-1.21,1.72-.46,2.59-.58,5.07-1.92,7.65-1.17,2.26-1,5.44,0,8.49,2.05,6.22-1.61,11.42-4.25,16.69a1.52,1.52,0,0,1-.51.53c-8.13,5.45-14.52,13.58-25.57,14.5-3.09.25-5.75.56-8.33-.82-2.92-1.57-6.56-.2-9.3-3-2.16-2.22-3.09-5.16-5-7.21-3.26-3.57-6.71-6.86-8.53-11.58C91.72,161.84,89.47,162.93,90.38,165.25Zm65.49-50.8h0C155.86,114.51,155.87,114.46,155.87,114.45ZM91.72,64.9c-.17.84,0,1.75-.11,2.61A57.16,57.16,0,0,0,91,82a2.9,2.9,0,0,1-.92,2.72c-2.31,1.86-2.19,4.25-1.79,6.81.59,3.84.73,7.64-.65,11.42a7.32,7.32,0,0,0-.23.76,2.51,2.51,0,0,0-1-1.67c-1,1.68-.54,2.93.78,4.35a11.16,11.16,0,0,0,.73,3.15c3.73,9.69,3.15,19.81,2.91,29.89a.74.74,0,0,1-.63.79,1.18,1.18,0,0,1-.51-.32c.12-2.6.34-5.22-.76-7.72a6.51,6.51,0,0,0-.12,1.64c.08,0,.49-.06.57.72a8.84,8.84,0,0,1,0,1.79c-.05-.79-.24-1.59-.31-2.37,0-.07,0-.09-.14-.09a.28.28,0,0,1-.14,0c0,.62.07,1.23,0,1.83a27.38,27.38,0,0,1-.55,3.48,1.63,1.63,0,0,0-.6.49A44,44,0,0,0,88.52,158c-.5-1.13-.43-2.75-1.91-2.48s-1.4,1.83-1.25,3.06a11.19,11.19,0,0,0,1.17,3.92c.71,1.35,1.59,2.8,3.21,2.85a1.48,1.48,0,0,0,.59-.08c-3.66-3.2-4.66-6.26-3.37-9.38,1.34,1.08.61,3.11,2.31,4.94a121.61,121.61,0,0,1-1-21.54.91.91,0,0,0,.17-.17,3,3,0,0,0,.86-1.45,12.38,12.38,0,0,0,0,1.83,7.38,7.38,0,0,0,.35,2c.21.56.29,1.47,1,1.26,1.17-.32,1.14-1.59,1.12-2.48-.15-8.81.87-17.66-1.38-26.41-.9-3.51-3.49-6.92-1.76-10.8,1.83-4.11,1.54-8.14.51-12.37-.46-1.89-1.52-4.33,1.92-5.34,1.07-.32,1.8-2.45,1-3.94-.64-1.23-.32-2.38-.41-3.59-.5-6.41,2.48-12.75.27-19.18-.3-.88.28-2.32-1-2.54s-.9,1.27-1.61,2A6.5,6.5,0,0,1,91.72,64.9Zm-4.13-2.3c.42,0,.87-.67,1.19-.94a1.74,1.74,0,0,0-1.26-2.12c-.84-.26-.93.57-.88,1.12C86.71,61.41,86.36,62.54,87.59,62.6Zm-18.21,60c-.69,2.37-1.32,4.79,1.33,6.65,1-2.4,2.08-4.76.13-7.13C70.41,121.62,69.56,122,69.38,122.63Z"/><path class="cls-3" d="M241.3,155.42h0c-1.57-.57-1.59-2.12-2-3.35q-5.25-15.59-11.72-30.71c-1.69-4-3-4.69-7.24-3.91-2.45.46-4.8,1.33-7.21,2a9.85,9.85,0,0,0-6.85,6.29c-3.88,9.46-7.15,19.13-10.39,28.81-1.65,5-3.61,9.82-5.43,14.72-1.57,4.21-8.7,6.48-12.57,4.09a2.54,2.54,0,0,1-1-3.28c4.24-12.46,2.65-25.38,3.18-38.15.71-17.17.38-34.35.85-51.51.17-6.58.47-13.17.62-19.76.07-2.71-.77-4.23-3.64-4.48-6.7-.57-13.42-.88-20.1-1.64-2-.23-2.89,1.08-2.49,2.78,1.54,6.4,1,13.1.34,19.26-.73,7,1.55,13.85-.18,20.68a3.17,3.17,0,0,0,0,2.21c2.63,4.9.19,9.9.37,14.83a1.54,1.54,0,0,0,0,.19h0s0,.06,0,0a.65.65,0,0,0,0,.18c-.16,1.14-.05,2.73-1.29,3,0,.12,0,.23,0,.35l-.19-.31h0c-2,.15-1.51-1.74-1.67-2.81-.19,2-.27,4,1.8,5.45a3.51,3.51,0,0,1,1.32,3c-.07,6.46,2,13.05-1.74,19.28-1.11,1.82-.83,4.31-.38,6.59,1.73,8.94-.6,16.41-8.23,21.87a40.31,40.31,0,0,0-3.9,3.49c-4.17,3.91-9.18,6-14.54,8-6.76,2.54-12.61.45-18.73-1.11a10.44,10.44,0,0,1-6.94-5.36c-1.47-3.17-3.72-5.5-5.94-8a15.57,15.57,0,0,1-3.49-5.7c-.81.76-.47,2.46-1.48,2.89a.32.32,0,0,0,0,.09l-.08-.07a1.48,1.48,0,0,1-.59.08c-1.62,0-2.5-1.5-3.21-2.85a11.19,11.19,0,0,1-1.17-3.92c-.15-1.23-.36-2.78,1.25-3.06S88,156.87,88.52,158a44,44,0,0,1-.81-18.34,1.63,1.63,0,0,1,.6-.49,27.38,27.38,0,0,0,.55-3.48c0-.6,0-1.21,0-1.83,0,0,0,0,0,0a6.51,6.51,0,0,1,.12-1.64c1.1,2.5.88,5.12.76,7.72a1.18,1.18,0,0,0,.51.32.74.74,0,0,0,.63-.79c.24-10.08.82-20.2-2.91-29.89a11.16,11.16,0,0,1-.73-3.15c-1.32-1.42-1.79-2.67-.78-4.35a2.51,2.51,0,0,1,1,1.67,7.32,7.32,0,0,1,.23-.76c1.38-3.78,1.24-7.58.65-11.42-.4-2.56-.52-5,1.79-6.81A2.9,2.9,0,0,0,91,82a57.16,57.16,0,0,1,.59-14.49c.12-.86-.06-1.77.11-2.61a6.5,6.5,0,0,0-2.32-6.84,1,1,0,0,1-.28.2c-.05-.18-.09-.35-.15-.51a10.83,10.83,0,0,0-2.9-1.33c-5.68-1.68-11.55-3.05-17.62-1.83-2.14.43-3.25,1.34-3.22,3.72.1,7.59,0,15.19,0,22.78,0,1.13,0,2.38,1,3.11,2.1,1.58,1.82,3.61,1.38,5.75-.72,3.46-1,3.56-3.87,1.32a4.31,4.31,0,0,1,1.4,4.07c-1.44,6.8-.18,13.65-.53,20.48a264.29,264.29,0,0,0,.53,27.71,75.86,75.86,0,0,1-.46,8.89,31.51,31.51,0,0,0,2.53,14.79c2,4.8,3.36,9.8,6.58,14,5,6.54,10.3,12.75,17.12,17.52a25.49,25.49,0,0,1,3.32,3c3.43,3.39,7,6.47,12.38,5.55,1.33-.23,2.69.45,4,.76,9.21,2.1,17.84.78,26.55-3a157.34,157.34,0,0,0,16.34-8c7.25-4.23,13.4-9.47,18-16.51.61-.94,1.21-1.89,1.87-2.8,1.93-2.64,2.82-2.55,4.4.43a17.47,17.47,0,0,0,1.3,2.68c3.7,4.85,4.07,9.9,1.26,15.3-1.24,2.38-.16,4,2.09,5.11,2.79,1.4,5.66,2.6,8.52,3.84s4.46.24,5.53-2.44a87.21,87.21,0,0,0,3.18-8.37c.87-3.08,2.71-4.65,6-4.44,5.87.39,11.67-1.15,17.54-.73,1.38.1,3.06-.45,3.89,1.34,2.32,4.24,3.25,9,5.19,13.4.58,1.3.86,3.11,3,2.35,7.34-2.57,14.67-5.16,21.68-7.63C251.07,184.14,246,169.84,241.3,155.42ZM87.52,59.54a1.74,1.74,0,0,1,1.26,2.12c-.32.27-.77,1-1.19.94-1.23-.06-.88-1.19-1-1.94C86.59,60.11,86.68,59.28,87.52,59.54ZM70.71,129.28c-2.65-1.86-2-4.28-1.33-6.65.18-.65,1-1,1.46-.48C72.79,124.52,71.67,126.88,70.71,129.28Zm149.7,43.66c-3.1.05-6.22,0-9.31.24-2.6.21-3-.72-2.25-3,2.43-7.41,4.77-14.85,7.44-23.21,1.79,8.81,3.49,16.64,5.72,24.34C222.46,172.89,221.49,172.92,220.41,172.94Z"/><path class="cls-3" d="M383.91,184.78c-.05-4.28-.05-4.27-3.87-2.4-6.21,3-12.56,5.41-19.67,4.7-4.41-.45-8.23-1.93-10.43-6.09-.44-.83-.93-2-.64-2.75.5-1.3,1.73-.24,2.63-.19,9.31.52,18.09-1,25.86-6.53,7.32-5.18,10.13-12,8-19.19-2.65-8.81-8.61-14.44-17.38-16.81-13.1-3.54-28.88,3.14-36.43,15.36C321.61,167.6,324.33,191,345,200.14c10.48,4.62,20.85,3,31.16-.78,7.79-2.86,7.8-2.83,7.75-10.85C383.91,187.27,383.93,186,383.91,184.78Zm-29.13-32.42a9.27,9.27,0,0,1,9.09-1.88c2.26.71,4.65,1.58,5.06,4.33s-1.84,3.92-3.77,5c-5.16,2.83-10.83,4-16.88,5.15C349.31,159.78,351,155.5,354.78,152.36Z"/><path class="cls-3" d="M484.14,187.23c1.68,7.74,1.7,7.79-5.84,10.21-5.91,1.9-11.78,3.8-18.2,3.25-9.78-.83-15.25-6.76-15.51-17.39-.21-9,1-17.87,1.56-26.8.16-2.77-.41-3.76-3.38-3.37-2.8.38-6.78,1.26-8.12-.93-1.14-1.87,2.14-4.58,3.43-6.94.94-1.74,2.07-3.39,3.17-5,.46-.7.82-1.89,1.77-1.72,4.24.78,3.79-2.05,4-4.71.25-3.71.86-7.4,1.16-11.11a2.82,2.82,0,0,1,2.69-2.91,131.4,131.4,0,0,0,17.73-4.13c1.91-.65,2.47-.17,2.28,1.77-.51,5.44-.8,10.9-1.47,16.32-.39,3.14.2,4.69,3.74,4.05a25.75,25.75,0,0,1,4.48,0c9.51-.1,9.21-.21,6,8.73-1.61,4.5-3.95,6-8.64,5.9-6.44-.18-6.44.16-7.31,6.47a116.82,116.82,0,0,0-1.36,17.82c.09,6.64,2.79,8.7,9.26,7.05.6-.15,1.21-.29,1.8-.47C482.9,181.53,482.9,181.52,484.14,187.23Z"/><path class="cls-3" d="M319.19,144.55a30.2,30.2,0,0,0-1,8.85c.05,3-1.18,3-3.37,2.26a37.94,37.94,0,0,0-12.77-2.25c-10.39.11-17.39,7.45-17.25,18.26.15,11.82,9.39,17.82,22.07,14.23,2.7-.76,5.29-1.93,8.71-3.21,0,5.16,0,10,0,14.79a3.23,3.23,0,0,1-1.76,3c-17,11-43.7,1.59-49.81-17.61-7-22,9.65-45.75,32.65-46.7,6.77-.27,13.39.07,19.68,3C318.79,140.3,320.08,141.48,319.19,144.55Z"/><path class="cls-3" d="M426.66,115.63c-.62,11-1.06,22.1-1.71,33.14-.87,14.76-2,29.52-2.72,44.29-.15,2.9-1.18,4.26-3.78,5-5.12,1.48-10.18,3.14-15.3,4.62-4.42,1.28-5.15.64-5-4,0-1,0-2,0-2.56,1.24-22.53,2.47-44.64,3.67-66.74.6-11.06.56-11.08,11.1-13.89,3.35-.9,6.8-1.48,10.08-2.59C425.89,111.89,426.83,112.62,426.66,115.63Z"/><path class="cls-4" d="M89.69,139.9c0,.54,0,1.07,0,1.6l-1.35-2.21s0-.08,0-.12a27.38,27.38,0,0,0,.55-3.48c0-.6,0-1.21,0-1.83,0,0,0,0,0,0a6.51,6.51,0,0,1,.12-1.64C90,134.68,89.81,137.3,89.69,139.9Z"/><path class="cls-5" d="M220.41,172.94c-3.1.05-6.22,0-9.31.24-2.6.21-3-.72-2.25-3,2.43-7.41,4.77-14.85,7.44-23.21,1.79,8.81,3.49,16.64,5.72,24.34C222.46,172.89,221.49,172.92,220.41,172.94Z"/><path class="cls-6" d="M70.71,129.28c-2.65-1.86-2-4.28-1.33-6.65.18-.65,1-1,1.46-.48C72.79,124.52,71.67,126.88,70.71,129.28Z"/><path class="cls-7" d="M88.78,61.66c-.32.27-.77,1-1.19.94-1.23-.06-.88-1.19-1-1.94,0-.55,0-1.38.88-1.12A1.74,1.74,0,0,1,88.78,61.66Z"/><path class="cls-8" d="M87.54,106.75l-.35-.36c-1.32-1.42-1.79-2.67-.78-4.35a2.51,2.51,0,0,1,1,1.67h0C87.56,104.68,87.2,105.68,87.54,106.75Z"/></g></g></svg>