<svg width="20" height="16" viewBox="0 0 20 16" fill="none" xmlns="http://www.w3.org/2000/svg">
<path d="M2.04864 1.80188L5.85364 5.14988L9.24364 0.975878C9.33857 0.859188 9.4586 0.765417 9.59479 0.701548C9.73098 0.63768 9.87983 0.605359 10.0302 0.606993C10.1807 0.608626 10.3288 0.644173 10.4635 0.710986C10.5983 0.777798 10.7163 0.874154 10.8086 0.992878L14.0436 5.14888L17.9716 1.75288C18.1259 1.61979 18.3171 1.53699 18.5197 1.51556C18.7223 1.49413 18.9266 1.5351 19.1053 1.63298C19.284 1.73085 19.4285 1.88097 19.5196 2.06324C19.6106 2.24551 19.6438 2.45123 19.6146 2.65288L18.1146 12.9999H1.92164L0.398644 2.69988C0.368392 2.49711 0.401189 2.28995 0.492595 2.10645C0.584 1.92294 0.729597 1.77197 0.909665 1.67397C1.08973 1.57597 1.29557 1.53568 1.4993 1.55856C1.70303 1.58144 1.8948 1.66638 2.04864 1.80188ZM1.99964 13.9999H17.9996V14.9999C17.9996 15.2651 17.8943 15.5194 17.7068 15.707C17.5192 15.8945 17.2649 15.9999 16.9996 15.9999H2.99964C2.73443 15.9999 2.48007 15.8945 2.29254 15.707C2.105 15.5194 1.99964 15.2651 1.99964 14.9999V13.9999Z" fill="#FFD700"/>
</svg>
