<?xml version="1.0" standalone="no"?>
<!DOCTYPE svg PUBLIC "-//W3C//DTD SVG 20010904//EN"
 "http://www.w3.org/TR/2001/REC-SVG-20010904/DTD/svg10.dtd">
<svg version="1.0" xmlns="http://www.w3.org/2000/svg"
 width="1137.000000pt" height="1134.000000pt" viewBox="0 0 1137.000000 1134.000000"
 preserveAspectRatio="xMidYMid meet">
<metadata>
Created by potrace 1.16, written by Peter Selinger 2001-2019
</metadata>
<g transform="translate(0.000000,1134.000000) scale(0.100000,-0.100000)"
fill="#000000" stroke="none">
<path d="M0 5670 l0 -5670 5685 0 5685 0 0 5670 0 5670 -2294 0 -2294 0 -6
-27 c-3 -16 -15 -86 -26 -158 -12 -71 -34 -188 -50 -260 -16 -71 -45 -229 -65
-350 -20 -121 -40 -238 -45 -260 -5 -22 -11 -52 -15 -67 -4 -23 -11 -28 -34
-28 -16 0 -33 6 -38 13 -5 6 -34 73 -63 147 -66 167 -85 206 -121 248 -16 18
-29 36 -29 41 0 5 -56 125 -124 268 -68 143 -141 299 -161 346 l-37 87 -2984
0 -2984 0 0 -5670z m5751 5295 c55 -358 71 -456 84 -510 8 -33 19 -107 25
-165 7 -58 36 -253 66 -434 58 -354 65 -445 36 -487 -17 -26 -259 -239 -357
-315 -64 -50 -120 -112 -110 -122 3 -4 120 -7 258 -8 415 -2 639 -32 961 -129
182 -56 221 -64 232 -53 13 13 39 176 211 1346 55 369 71 455 84 463 14 7 83
-54 355 -313 187 -177 411 -389 498 -472 613 -580 607 -574 575 -612 -7 -9
-44 -35 -82 -60 -38 -25 -121 -84 -185 -133 -65 -48 -214 -155 -332 -238 -478
-336 -482 -340 -410 -375 57 -29 326 -255 446 -375 351 -352 610 -758 764
-1200 43 -124 38 -119 101 -98 30 10 97 38 149 62 52 25 117 53 143 64 26 10
150 65 275 120 125 56 271 119 325 140 54 22 121 51 149 65 28 14 119 54 202
89 83 35 207 88 276 119 68 31 130 54 137 51 11 -4 13 -94 10 -467 -3 -505 1
-473 -66 -578 -19 -30 -78 -132 -130 -226 -379 -676 -392 -695 -449 -642 -15
14 -81 58 -147 99 -66 40 -140 87 -165 104 -25 18 -67 42 -93 55 -27 12 -51
29 -54 36 -3 8 -11 14 -17 14 -7 0 -39 19 -72 42 -32 23 -75 51 -95 62 -20 12
-91 58 -158 104 -68 46 -125 81 -129 78 -3 -4 -6 -163 -7 -354 -1 -272 -5
-373 -18 -466 -33 -226 -104 -522 -158 -658 -10 -27 -19 -59 -19 -71 0 -32
-215 -459 -292 -582 -93 -147 -318 -436 -422 -543 -180 -184 -406 -365 -646
-516 -69 -43 -134 -87 -145 -97 -11 -10 -33 -23 -49 -29 -16 -6 -27 -12 -25
-15 3 -2 56 11 119 29 63 19 135 36 160 39 108 13 142 20 252 50 78 21 118 37
118 46 0 32 47 86 120 137 43 29 104 84 136 121 88 101 140 147 155 137 6 -3
32 -52 59 -108 27 -56 65 -122 84 -146 20 -25 36 -50 36 -57 0 -6 6 -13 13
-15 7 -2 212 -154 455 -338 244 -184 481 -362 527 -395 46 -33 84 -65 84 -72
1 -12 -39 -39 -49 -33 -3 1 -15 6 -27 11 -20 7 -21 6 -16 -25 4 -26 0 -36 -23
-57 -29 -25 -80 -76 -198 -198 -39 -40 -92 -84 -117 -96 -37 -19 -51 -34 -72
-78 -17 -37 -41 -65 -76 -92 -28 -22 -51 -42 -51 -46 0 -12 -293 -317 -330
-344 -19 -14 -63 -53 -97 -86 -39 -38 -69 -59 -80 -57 -10 2 -27 21 -38 43
-16 29 -29 41 -51 46 -28 5 -417 320 -649 524 -44 39 -159 138 -255 220 -96
83 -180 155 -186 160 -6 6 -57 48 -113 94 -114 95 -180 175 -164 200 15 25 58
42 146 57 127 23 222 24 321 4 49 -9 133 -18 188 -19 56 0 181 -14 286 -31
103 -17 358 -53 567 -80 209 -27 415 -56 458 -65 94 -18 105 -19 91 -5 -15 15
-184 45 -449 80 -126 17 -313 43 -415 59 -102 16 -246 37 -320 45 -201 24
-599 80 -825 117 -228 38 -273 40 -370 15 -38 -10 -119 -30 -180 -44 l-110
-27 -3 -95 c-2 -52 1 -111 7 -130 10 -35 32 -166 31 -185 -1 -5 -3 -37 -6 -69
-4 -33 -1 -100 5 -150 10 -88 15 -143 26 -331 3 -49 12 -171 20 -270 26 -341
28 -382 15 -390 -8 -5 -19 0 -29 12 -16 19 -42 44 -281 263 -238 218 -262 244
-354 378 -166 240 -167 245 -112 456 19 72 37 152 40 177 4 26 16 82 27 125
32 117 34 140 14 148 -10 3 -61 9 -114 12 -181 10 -585 63 -613 80 -5 3 -33
10 -61 14 -56 9 -79 16 -291 86 -142 47 -356 144 -506 229 -84 47 -270 164
-280 175 -3 3 -21 17 -40 30 -90 61 -248 197 -379 325 -286 279 -511 600 -677
965 -68 151 -149 370 -185 503 -29 106 -28 106 -170 42 -56 -25 -147 -63 -203
-84 -55 -21 -164 -65 -241 -98 -77 -33 -162 -68 -190 -77 -27 -9 -72 -27 -99
-41 -47 -24 -76 -31 -76 -20 0 20 38 88 88 158 32 45 188 273 347 507 267 395
331 486 408 582 26 33 30 46 38 150 23 290 104 643 205 897 84 210 214 468
298 591 36 52 81 122 101 154 20 33 52 77 71 100 19 22 34 47 34 56 0 12 -48
32 -197 80 -250 81 -279 94 -297 134 -8 17 -57 137 -109 266 -52 129 -139 339
-192 465 -103 243 -191 461 -197 484 -2 7 3 16 10 18 6 3 12 -2 12 -10 0 -8
12 -23 27 -32 15 -10 182 -142 372 -293 834 -665 920 -732 934 -732 3 0 16 9
29 20 12 10 45 37 71 60 27 22 53 40 60 40 6 0 25 13 42 29 87 83 435 293 585
354 25 10 47 23 50 28 15 23 527 199 580 199 17 0 44 7 60 15 24 12 29 23 35
67 4 29 25 112 46 184 21 73 84 311 139 530 56 220 166 643 246 941 79 298
144 546 145 550 2 29 24 -61 40 -162z m-2548 104 c29 -16 37 -28 37 -63 0 -39
-26 -66 -65 -66 -41 0 -63 18 -71 57 -5 26 -1 37 19 57 29 29 47 32 80 15z
m2009 -698 c-2 -14 -59 -194 -126 -400 -68 -207 -170 -522 -227 -700 -63 -196
-110 -326 -118 -329 -9 -3 -22 5 -32 19 -83 114 -348 479 -457 629 -74 101
-139 195 -145 208 -15 32 4 47 158 124 150 76 804 417 865 452 56 32 86 31 82
-3z m-3254 -1449 c6 -9 12 -33 12 -54 0 -45 -22 -61 -78 -56 -45 4 -69 42 -54
86 16 49 88 64 120 24z m454 -4389 c14 -16 67 -91 118 -167 51 -77 158 -235
238 -350 290 -422 293 -426 258 -426 -7 0 -150 52 -317 116 -167 63 -480 182
-696 264 -486 185 -465 176 -461 195 5 24 767 394 814 395 11 0 32 -12 46 -27z
m879 -1163 c92 -54 173 -129 210 -195 41 -72 67 -99 127 -129 28 -14 52 -31
52 -37 0 -19 49 -59 74 -59 27 0 56 -23 56 -46 0 -8 -10 -24 -21 -35 -26 -26
-77 -24 -186 10 -18 5 -33 7 -33 4 0 -3 -7 0 -15 7 -8 7 -15 10 -15 7 0 -3
-15 -1 -32 5 -18 5 -42 11 -53 13 -11 2 -20 4 -20 5 0 2 -19 7 -59 15 -16 3
-37 10 -48 16 -10 5 -23 7 -28 4 -5 -3 -12 0 -15 6 -4 5 -13 8 -21 5 -8 -3
-14 -2 -14 3 0 4 -6 8 -12 9 -27 2 -72 13 -90 23 -10 5 -18 7 -18 4 0 -2 -22
4 -50 15 -27 11 -50 18 -50 15 0 -2 -31 7 -69 20 -38 13 -84 25 -102 28 -19 3
-63 12 -99 21 -36 9 -75 19 -86 21 -12 3 -38 12 -58 20 -20 8 -36 13 -36 10 0
-3 -8 -1 -18 4 -11 6 -30 12 -43 15 -13 3 -35 8 -49 11 -14 3 -36 8 -50 11
-32 7 -42 17 -35 36 6 15 123 45 158 41 11 -2 16 1 11 8 -4 7 0 9 14 5 26 -9
74 3 66 16 -4 6 1 8 14 4 25 -8 74 3 66 15 -3 5 10 6 28 3 19 -3 28 -2 22 3
-7 4 23 9 70 11 67 2 92 8 143 33 35 16 72 32 84 34 12 3 24 7 28 11 3 3 33 4
67 2 50 -3 74 -11 135 -48z m1627 -1018 c23 -26 55 -74 71 -107 77 -158 126
-266 205 -455 48 -113 105 -245 127 -295 55 -122 64 -154 47 -171 -12 -12
-177 51 -693 264 -27 12 -111 44 -185 72 -222 84 -554 222 -569 236 -7 7 -11
19 -8 26 6 17 482 294 530 310 18 5 85 37 150 70 156 79 226 107 257 102 14
-2 44 -25 68 -52z m-918 -1493 c132 -183 199 -284 193 -290 -10 -10 -742 63
-763 76 -25 15 -17 27 213 338 78 105 123 157 136 157 13 0 80 -85 221 -281z
m2868 -715 c16 -11 22 -25 22 -51 0 -47 -24 -73 -67 -73 -42 0 -73 30 -73 70
0 59 67 90 118 54z"/>
<path d="M4632 6831 l-1164 -1157 1168 -1163 1168 -1162 1164 1163 1164 1163
-1164 1157 c-640 637 -1165 1157 -1168 1157 -3 0 -529 -521 -1168 -1158z
m2291 -44 l1119 -1112 -1114 -1112 c-613 -612 -1118 -1113 -1124 -1113 -5 0
-513 500 -1127 1111 l-1118 1112 1118 1113 c615 612 1120 1113 1123 1113 3 0
508 -500 1123 -1112z"/>
<path d="M5646 7040 c-610 -77 -1083 -517 -1203 -1117 -24 -121 -24 -375 0
-497 111 -555 514 -970 1067 -1097 121 -28 364 -36 495 -15 205 31 400 107
574 224 112 74 291 253 364 363 116 176 192 370 223 574 21 130 13 364 -15
485 -125 545 -537 949 -1082 1060 -114 24 -320 33 -423 20z m409 -85 c351 -73
650 -275 844 -569 299 -456 281 -1055 -45 -1489 -253 -337 -633 -527 -1054
-527 -627 0 -1151 429 -1287 1052 -24 113 -24 400 1 507 71 312 231 575 466
763 179 143 419 245 651 278 92 13 331 5 424 -15z"/>
<path d="M4870 5984 c-14 -3 -49 -9 -77 -15 l-53 -10 0 -75 c0 -41 2 -74 5
-74 3 0 34 9 68 21 47 16 80 20 136 17 66 -3 76 -6 98 -32 13 -15 22 -33 20
-40 -2 -6 -49 -17 -107 -24 -208 -26 -282 -93 -268 -242 13 -130 160 -198 294
-136 28 13 55 29 58 35 12 19 25 12 28 -16 l3 -28 90 0 90 0 0 235 c0 219 -1
238 -21 275 -23 45 -68 80 -123 95 -41 12 -203 21 -241 14z m198 -396 c2 -47
-1 -60 -19 -77 -42 -39 -138 -39 -159 0 -18 32 -8 80 20 100 22 17 120 40 145
34 6 -1 11 -27 13 -57z"/>
<path d="M5595 5979 c-167 -24 -265 -140 -265 -314 0 -134 63 -238 173 -285
80 -35 206 -39 297 -10 l70 23 0 83 c0 65 -3 84 -14 84 -7 0 -19 -7 -27 -16
-44 -53 -168 -73 -231 -38 -94 55 -97 251 -5 318 55 40 170 22 234 -36 33 -31
43 -15 43 72 l0 78 -39 16 c-34 13 -156 38 -171 35 -3 -1 -32 -5 -65 -10z"/>
<path d="M6277 5976 c-21 -8 -56 -26 -77 -40 l-40 -26 0 30 0 30 -95 0 -95 0
0 -305 0 -306 93 3 92 3 3 216 2 215 36 17 c45 22 76 21 105 -2 24 -19 24 -23
29 -233 l5 -213 90 0 90 0 3 213 2 213 33 19 c17 11 42 20 54 20 31 0 71 -20
78 -39 4 -9 9 -108 12 -221 l4 -205 87 0 87 0 3 235 c3 261 -3 297 -59 344
-77 65 -177 54 -282 -31 -36 -29 -39 -29 -60 6 -31 54 -132 82 -200 57z"/>
</g>
</svg>
